<?xml version="1.0" encoding="UTF-8" standalone="no"?><svg xmlns="http://www.w3.org/2000/svg" xmlns:xlink="http://www.w3.org/1999/xlink" contentScriptType="application/ecmascript" contentStyleType="text/css" height="677px" preserveAspectRatio="none" style="width:566px;height:677px;" version="1.1" viewBox="0 0 566 677" width="566px" zoomAndPan="magnify"><defs><filter height="300%" id="fig5ds3knt0ip" width="300%" x="-1" y="-1"><feGaussianBlur result="blurOut" stdDeviation="2.0"/><feColorMatrix in="blurOut" result="blurOut2" type="matrix" values="0 0 0 0 0 0 0 0 0 0 0 0 0 0 0 0 0 0 .4 0"/><feOffset dx="4.0" dy="4.0" in="blurOut2" result="blurOut3"/><feBlend in="SourceGraphic" in2="blurOut3" mode="normal"/></filter></defs><g><text fill="#000000" font-family="sans-serif" font-size="18" lengthAdjust="spacingAndGlyphs" text-decoration="underline" textLength="393" x="80.5" y="16.708">HANDLERTHREADCVICENIE's Class Diagram</text><text fill="#000000" font-family="sans-serif" font-size="18" lengthAdjust="spacingAndGlyphs" textLength="0" x="280" y="37.6611"/><!--MD5=[9c632b4c3228eb00c55faab77bad2982]
cluster sk.uniza.handlerthreadcvicenie--><polygon fill="#FFFFFF" filter="url(#fig5ds3knt0ip)" points="257,188.9063,510,188.9063,517,211.2031,520,211.2031,520,593.9063,257,593.9063,257,188.9063" style="stroke: #000000; stroke-width: 1.5;"/><line style="stroke: #000000; stroke-width: 1.5;" x1="257" x2="517" y1="211.2031" y2="211.2031"/><text fill="#000000" font-family="sans-serif" font-size="14" font-weight="bold" lengthAdjust="spacingAndGlyphs" textLength="247" x="261" y="203.9014">sk.uniza.handlerthreadcvicenie</text><!--MD5=[5a11439e6a9c928fb0d5ec822813d7c6]
cluster androidx.appcompat.app--><polygon fill="#FFFFFF" filter="url(#fig5ds3knt0ip)" points="22,354.4063,223,354.4063,230,376.7031,233,376.7031,233,453.4063,22,453.4063,22,354.4063" style="stroke: #000000; stroke-width: 1.5;"/><line style="stroke: #000000; stroke-width: 1.5;" x1="22" x2="230" y1="376.7031" y2="376.7031"/><text fill="#000000" font-family="sans-serif" font-size="14" font-weight="bold" lengthAdjust="spacingAndGlyphs" textLength="195" x="26" y="369.4014">androidx.appcompat.app</text><!--MD5=[dea9b5bbfa9fcc376e7517230b1e1656]
cluster android.os--><polygon fill="#FFFFFF" filter="url(#fig5ds3knt0ip)" points="293,65.9063,383,65.9063,390,88.2031,451,88.2031,451,164.9063,293,164.9063,293,65.9063" style="stroke: #000000; stroke-width: 1.5;"/><line style="stroke: #000000; stroke-width: 1.5;" x1="293" x2="390" y1="88.2031" y2="88.2031"/><text fill="#000000" font-family="sans-serif" font-size="14" font-weight="bold" lengthAdjust="spacingAndGlyphs" textLength="84" x="297" y="80.9014">android.os</text><!--MD5=[90f976792ab58867b2f3311a3059323a]
class sk.uniza.handlerthreadcvicenie.MainActivity--><rect fill="#FEFECE" filter="url(#fig5ds3knt0ip)" height="73.6094" id="sk.uniza.handlerthreadcvicenie.MainActivity" style="stroke: #A80036; stroke-width: 1.5;" width="152" x="284" y="503.9063"/><ellipse cx="320.6" cy="519.9063" fill="#ADD1B2" rx="11" ry="11" style="stroke: #A80036; stroke-width: 1.0;"/><path d="M322.9438,515.5781 L323.1156,515.6563 C323.3344,515.3438 323.5375,515.25 323.8344,515.25 C324.1313,515.25 324.4125,515.3906 324.5688,515.6563 C324.6625,515.8125 324.6781,515.9375 324.6781,516.375 L324.6781,517.7969 C324.6781,518.2188 324.6469,518.4063 324.5375,518.5625 C324.3656,518.7813 324.1,518.9219 323.8344,518.9219 C323.6156,518.9219 323.3813,518.8125 323.2406,518.6719 C323.1,518.5469 323.0688,518.4219 323.0063,518.0156 C322.9125,517.6094 322.7406,517.3906 322.2563,517.1094 C321.7875,516.8594 321.1781,516.7031 320.6,516.7031 C318.8656,516.7031 317.6156,518.0156 317.6156,519.7969 L317.6156,520.8906 C317.6156,522.5938 318.9125,523.6875 320.9594,523.6875 C321.725,523.6875 322.4125,523.5625 322.8344,523.2969 C323.0219,523.2031 323.0219,523.2031 323.475,522.7188 C323.6625,522.5313 323.8656,522.4531 324.0844,522.4531 C324.5531,522.4531 324.9438,522.8438 324.9438,523.2969 C324.9438,523.6875 324.6156,524.1406 324.0375,524.5469 C323.2875,525.0938 322.1313,525.3906 320.9125,525.3906 C318.0219,525.3906 315.9125,523.5 315.9125,520.9219 L315.9125,519.7969 C315.9125,517.0781 317.9125,515 320.5375,515 C321.4125,515 322.0063,515.1406 322.9438,515.5781 Z "/><text fill="#000000" font-family="sans-serif" font-size="12" lengthAdjust="spacingAndGlyphs" textLength="72" x="339.4" y="524.0605">MainActivity</text><line style="stroke: #A80036; stroke-width: 1.5;" x1="285" x2="435" y1="535.9063" y2="535.9063"/><line style="stroke: #A80036; stroke-width: 1.5;" x1="285" x2="435" y1="543.9063" y2="543.9063"/><ellipse cx="295" cy="554.9063" fill="#84BE84" rx="3" ry="3" style="stroke: #038048; stroke-width: 1.0;"/><text fill="#000000" font-family="sans-serif" font-size="11" lengthAdjust="spacingAndGlyphs" textLength="126" x="304" y="558.1167">onImageDownloaded()</text><polygon fill="#FFFF44" points="295,562.7109,299,566.7109,295,570.7109,291,566.7109" style="stroke: #B38D22; stroke-width: 1.0;"/><text fill="#000000" font-family="sans-serif" font-size="11" lengthAdjust="spacingAndGlyphs" textLength="60" x="304" y="570.9214">onCreate()</text><!--MD5=[27a6c7ce08230c05c642f2721d898e01]
class sk.uniza.handlerthreadcvicenie.MyHandlerThread--><rect fill="#FEFECE" filter="url(#fig5ds3knt0ip)" height="99.2188" id="sk.uniza.handlerthreadcvicenie.MyHandlerThread" style="stroke: #A80036; stroke-width: 1.5;" width="176" x="284" y="223.9063"/><ellipse cx="314.75" cy="239.9063" fill="#ADD1B2" rx="11" ry="11" style="stroke: #A80036; stroke-width: 1.0;"/><path d="M317.0938,235.5781 L317.2656,235.6563 C317.4844,235.3438 317.6875,235.25 317.9844,235.25 C318.2813,235.25 318.5625,235.3906 318.7188,235.6563 C318.8125,235.8125 318.8281,235.9375 318.8281,236.375 L318.8281,237.7969 C318.8281,238.2188 318.7969,238.4063 318.6875,238.5625 C318.5156,238.7813 318.25,238.9219 317.9844,238.9219 C317.7656,238.9219 317.5313,238.8125 317.3906,238.6719 C317.25,238.5469 317.2188,238.4219 317.1563,238.0156 C317.0625,237.6094 316.8906,237.3906 316.4063,237.1094 C315.9375,236.8594 315.3281,236.7031 314.75,236.7031 C313.0156,236.7031 311.7656,238.0156 311.7656,239.7969 L311.7656,240.8906 C311.7656,242.5938 313.0625,243.6875 315.1094,243.6875 C315.875,243.6875 316.5625,243.5625 316.9844,243.2969 C317.1719,243.2031 317.1719,243.2031 317.625,242.7188 C317.8125,242.5313 318.0156,242.4531 318.2344,242.4531 C318.7031,242.4531 319.0938,242.8438 319.0938,243.2969 C319.0938,243.6875 318.7656,244.1406 318.1875,244.5469 C317.4375,245.0938 316.2813,245.3906 315.0625,245.3906 C312.1719,245.3906 310.0625,243.5 310.0625,240.9219 L310.0625,239.7969 C310.0625,237.0781 312.0625,235 314.6875,235 C315.5625,235 316.1563,235.1406 317.0938,235.5781 Z "/><text fill="#000000" font-family="sans-serif" font-size="12" lengthAdjust="spacingAndGlyphs" textLength="109" x="332.25" y="244.0605">MyHandlerThread</text><line style="stroke: #A80036; stroke-width: 1.5;" x1="285" x2="459" y1="255.9063" y2="255.9063"/><rect fill="none" height="6" style="stroke: #C82930; stroke-width: 1.0;" width="6" x="292" y="263.9063"/><text fill="#000000" font-family="sans-serif" font-size="11" lengthAdjust="spacingAndGlyphs" text-decoration="underline" textLength="69" x="304" y="270.1167">TAG : String</text><rect fill="none" height="6" style="stroke: #C82930; stroke-width: 1.0;" width="6" x="292" y="276.7109"/><text fill="#000000" font-family="sans-serif" font-size="11" lengthAdjust="spacingAndGlyphs" textLength="150" x="304" y="282.9214">mWorkerHandler : Handler</text><line style="stroke: #A80036; stroke-width: 1.5;" x1="285" x2="459" y1="289.5156" y2="289.5156"/><ellipse cx="295" cy="300.5156" fill="#84BE84" rx="3" ry="3" style="stroke: #038048; stroke-width: 1.0;"/><text fill="#000000" font-family="sans-serif" font-size="11" lengthAdjust="spacingAndGlyphs" textLength="107" x="304" y="303.7261">MyHandlerThread()</text><ellipse cx="295" cy="313.3203" fill="#84BE84" rx="3" ry="3" style="stroke: #038048; stroke-width: 1.0;"/><text fill="#000000" font-family="sans-serif" font-size="11" lengthAdjust="spacingAndGlyphs" textLength="97" x="304" y="316.5308">prepareHandler()</text><!--MD5=[2935f41d5d221d3707be9ea423b69517]
class sk.uniza.handlerthreadcvicenie.MyHandlerThread.Callback--><rect fill="#FEFECE" filter="url(#fig5ds3knt0ip)" height="60.8047" id="sk.uniza.handlerthreadcvicenie.MyHandlerThread.Callback" style="stroke: #A80036; stroke-width: 1.5;" width="198" x="273" y="382.9063"/><ellipse cx="288" cy="398.9063" fill="#B4A7E5" rx="11" ry="11" style="stroke: #A80036; stroke-width: 1.0;"/><path d="M288.9531,395.6875 L288.9531,402.2031 L290.6719,402.2031 C291.125,402.2031 291.2656,402.2344 291.4375,402.3594 C291.6719,402.5313 291.7813,402.7813 291.7813,403.0625 C291.7813,403.625 291.4219,403.9063 290.6719,403.9063 L285.5313,403.9063 C285.125,403.9063 284.9219,403.8594 284.7656,403.7344 C284.5469,403.5781 284.4063,403.3125 284.4063,403.0625 C284.4063,402.7656 284.5625,402.4844 284.8125,402.3281 C284.9688,402.2188 285.0938,402.2031 285.5313,402.2031 L287.25,402.2031 L287.25,395.6875 L285.5313,395.6875 C285.1094,395.6875 284.9219,395.6563 284.7656,395.5469 C284.5469,395.375 284.4063,395.125 284.4063,394.8438 C284.4063,394.5625 284.5625,394.2656 284.8125,394.1094 C284.9688,394.0156 285.0938,394 285.5313,394 L290.6719,394 C291.125,394 291.2656,394.0313 291.4375,394.1406 C291.6719,394.3125 291.7813,394.5781 291.7813,394.8438 C291.7813,395.1406 291.6406,395.4219 291.375,395.5781 C291.25,395.6563 291.0625,395.6875 290.6719,395.6875 Z "/><text fill="#000000" font-family="sans-serif" font-size="12" font-style="italic" lengthAdjust="spacingAndGlyphs" textLength="166" x="302" y="403.0605">MyHandlerThread.Callback</text><line style="stroke: #A80036; stroke-width: 1.5;" x1="274" x2="470" y1="414.9063" y2="414.9063"/><line style="stroke: #A80036; stroke-width: 1.5;" x1="274" x2="470" y1="422.9063" y2="422.9063"/><ellipse cx="284" cy="433.9063" fill="#84BE84" rx="3" ry="3" style="stroke: #038048; stroke-width: 1.0;"/><text fill="#000000" font-family="sans-serif" font-size="11" font-style="italic" lengthAdjust="spacingAndGlyphs" textLength="126" x="293" y="437.1167">onImageDownloaded()</text><!--MD5=[6971ca23cf0557f0436b13ef124bfeb7]
class androidx.appcompat.app.AppCompatActivity--><rect fill="#FEFECE" filter="url(#fig5ds3knt0ip)" height="48" id="androidx.appcompat.app.AppCompatActivity" style="stroke: #A80036; stroke-width: 1.5;" width="147" x="69.5" y="389.4063"/><ellipse cx="84.5" cy="405.4063" fill="#ADD1B2" rx="11" ry="11" style="stroke: #A80036; stroke-width: 1.0;"/><path d="M86.8438,401.0781 L87.0156,401.1563 C87.2344,400.8438 87.4375,400.75 87.7344,400.75 C88.0313,400.75 88.3125,400.8906 88.4688,401.1563 C88.5625,401.3125 88.5781,401.4375 88.5781,401.875 L88.5781,403.2969 C88.5781,403.7188 88.5469,403.9063 88.4375,404.0625 C88.2656,404.2813 88,404.4219 87.7344,404.4219 C87.5156,404.4219 87.2813,404.3125 87.1406,404.1719 C87,404.0469 86.9688,403.9219 86.9063,403.5156 C86.8125,403.1094 86.6406,402.8906 86.1563,402.6094 C85.6875,402.3594 85.0781,402.2031 84.5,402.2031 C82.7656,402.2031 81.5156,403.5156 81.5156,405.2969 L81.5156,406.3906 C81.5156,408.0938 82.8125,409.1875 84.8594,409.1875 C85.625,409.1875 86.3125,409.0625 86.7344,408.7969 C86.9219,408.7031 86.9219,408.7031 87.375,408.2188 C87.5625,408.0313 87.7656,407.9531 87.9844,407.9531 C88.4531,407.9531 88.8438,408.3438 88.8438,408.7969 C88.8438,409.1875 88.5156,409.6406 87.9375,410.0469 C87.1875,410.5938 86.0313,410.8906 84.8125,410.8906 C81.9219,410.8906 79.8125,409 79.8125,406.4219 L79.8125,405.2969 C79.8125,402.5781 81.8125,400.5 84.4375,400.5 C85.3125,400.5 85.9063,400.6406 86.8438,401.0781 Z "/><text fill="#000000" font-family="sans-serif" font-size="12" lengthAdjust="spacingAndGlyphs" textLength="115" x="98.5" y="409.5605">AppCompatActivity</text><line style="stroke: #A80036; stroke-width: 1.5;" x1="70.5" x2="215.5" y1="421.4063" y2="421.4063"/><line style="stroke: #A80036; stroke-width: 1.5;" x1="70.5" x2="215.5" y1="429.4063" y2="429.4063"/><!--MD5=[06c02f388a7ceee73f849f15ed40bf2d]
class android.os.HandlerThread--><rect fill="#FEFECE" filter="url(#fig5ds3knt0ip)" height="48" id="android.os.HandlerThread" style="stroke: #A80036; stroke-width: 1.5;" width="125" x="309.5" y="100.9063"/><ellipse cx="324.5" cy="116.9063" fill="#ADD1B2" rx="11" ry="11" style="stroke: #A80036; stroke-width: 1.0;"/><path d="M326.8438,112.5781 L327.0156,112.6563 C327.2344,112.3438 327.4375,112.25 327.7344,112.25 C328.0313,112.25 328.3125,112.3906 328.4688,112.6563 C328.5625,112.8125 328.5781,112.9375 328.5781,113.375 L328.5781,114.7969 C328.5781,115.2188 328.5469,115.4063 328.4375,115.5625 C328.2656,115.7813 328,115.9219 327.7344,115.9219 C327.5156,115.9219 327.2813,115.8125 327.1406,115.6719 C327,115.5469 326.9688,115.4219 326.9063,115.0156 C326.8125,114.6094 326.6406,114.3906 326.1563,114.1094 C325.6875,113.8594 325.0781,113.7031 324.5,113.7031 C322.7656,113.7031 321.5156,115.0156 321.5156,116.7969 L321.5156,117.8906 C321.5156,119.5938 322.8125,120.6875 324.8594,120.6875 C325.625,120.6875 326.3125,120.5625 326.7344,120.2969 C326.9219,120.2031 326.9219,120.2031 327.375,119.7188 C327.5625,119.5313 327.7656,119.4531 327.9844,119.4531 C328.4531,119.4531 328.8438,119.8438 328.8438,120.2969 C328.8438,120.6875 328.5156,121.1406 327.9375,121.5469 C327.1875,122.0938 326.0313,122.3906 324.8125,122.3906 C321.9219,122.3906 319.8125,120.5 319.8125,117.9219 L319.8125,116.7969 C319.8125,114.0781 321.8125,112 324.4375,112 C325.3125,112 325.9063,112.1406 326.8438,112.5781 Z "/><text fill="#000000" font-family="sans-serif" font-size="12" lengthAdjust="spacingAndGlyphs" textLength="93" x="338.5" y="121.0605">HandlerThread</text><line style="stroke: #A80036; stroke-width: 1.5;" x1="310.5" x2="433.5" y1="132.9063" y2="132.9063"/><line style="stroke: #A80036; stroke-width: 1.5;" x1="310.5" x2="433.5" y1="140.9063" y2="140.9063"/><!--MD5=[fb49bb7c759ea63718b406307c395369]
reverse link sk.uniza.handlerthreadcvicenie.MyHandlerThread.Callback to sk.uniza.handlerthreadcvicenie.MainActivity--><path d="M367.219,464.4113 C365.965,477.5273 364.636,491.4193 363.466,503.6613 " fill="none" id="sk.uniza.handlerthreadcvicenie.MyHandlerThread.Callback&lt;-sk.uniza.handlerthreadcvicenie.MainActivity" style="stroke: #A80036; stroke-width: 1.0; stroke-dasharray: 7.0,7.0;"/><polygon fill="none" points="360.284,463.3913,369.156,444.1482,374.221,464.7233,360.284,463.3913" style="stroke: #A80036; stroke-width: 1.0;"/><!--MD5=[2123e23e32b312feae266c11ec900b99]
reverse link androidx.appcompat.app.AppCompatActivity to sk.uniza.handlerthreadcvicenie.MainActivity--><path d="M200.422,447.6153 C230.293,464.8913 266.856,486.0373 297.444,503.7273 " fill="none" id="androidx.appcompat.app.AppCompatActivity&lt;-sk.uniza.handlerthreadcvicenie.MainActivity" style="stroke: #A80036; stroke-width: 1.0;"/><polygon fill="none" points="196.61,453.4973,182.801,437.4253,203.619,441.3783,196.61,453.4973" style="stroke: #A80036; stroke-width: 1.0;"/><!--MD5=[85555a38e2347a9f8bb71771179f1d46]
reverse link android.os.HandlerThread to sk.uniza.handlerthreadcvicenie.MyHandlerThread--><path d="M372,169.3852 C372,186.5073 372,206.2453 372,223.8333 " fill="none" id="android.os.HandlerThread&lt;-sk.uniza.handlerthreadcvicenie.MyHandlerThread" style="stroke: #A80036; stroke-width: 1.0;"/><polygon fill="none" points="365,169.1193,372,149.1193,379,169.1193,365,169.1193" style="stroke: #A80036; stroke-width: 1.0;"/><!--MD5=[8048c836f66074b7e6ad8b6e2b833fef]
reverse link sk.uniza.handlerthreadcvicenie.MyHandlerThread to sk.uniza.handlerthreadcvicenie.MyHandlerThread.Callback--><path d="M372,338.3063 C372,353.7833 372,369.6043 372,382.6323 " fill="none" id="sk.uniza.handlerthreadcvicenie.MyHandlerThread&lt;-sk.uniza.handlerthreadcvicenie.MyHandlerThread.Callback" style="stroke: #A80036; stroke-width: 1.0;"/><ellipse cx="372" cy="331.0603" fill="#FFFFFF" rx="8" ry="8" style="stroke: #A80036; stroke-width: 1.0;"/><line style="stroke: #A80036; stroke-width: 1.0;" x1="372" x2="372" y1="339.0603" y2="323.0603"/><line style="stroke: #A80036; stroke-width: 1.0;" x1="364" x2="380" y1="331.0603" y2="331.0603"/><text fill="#888888" font-family="sans-serif" font-size="10" lengthAdjust="spacingAndGlyphs" textLength="0" x="554" y="629.1885"/><text fill="#888888" font-family="sans-serif" font-size="10" lengthAdjust="spacingAndGlyphs" textLength="0" x="554" y="640.8291"/><text fill="#888888" font-family="sans-serif" font-size="10" lengthAdjust="spacingAndGlyphs" textLength="413" x="141" y="652.4697">PlantUML diagram generated by SketchIt! (https://bitbucket.org/pmesmeur/sketch.it)</text><text fill="#888888" font-family="sans-serif" font-size="10" lengthAdjust="spacingAndGlyphs" textLength="402" x="152" y="664.1104">For more information about this tool, please contact philippe.mesmeur@gmail.com</text><!--MD5=[2f682f12fdfe3eeacb88bdbf3b81ff68]
@startuml
title __HANDLERTHREADCVICENIE's Class Diagram__\n

  namespace sk.uniza.handlerthreadcvicenie {
    class sk.uniza.handlerthreadcvicenie.MainActivity {
        + onImageDownloaded()
        # onCreate()
    }
  }
  

  namespace sk.uniza.handlerthreadcvicenie {
    class sk.uniza.handlerthreadcvicenie.MyHandlerThread {
        {static} - TAG : String
        - mWorkerHandler : Handler
        + MyHandlerThread()
        + prepareHandler()
    }
  }
  

  namespace sk.uniza.handlerthreadcvicenie {
    interface sk.uniza.handlerthreadcvicenie.MyHandlerThread.Callback {
        {abstract} + onImageDownloaded()
    }
  }
  

  sk.uniza.handlerthreadcvicenie.MainActivity .up.|> sk.uniza.handlerthreadcvicenie.MyHandlerThread.Callback
  sk.uniza.handlerthreadcvicenie.MainActivity -up-|> androidx.appcompat.app.AppCompatActivity
  sk.uniza.handlerthreadcvicenie.MyHandlerThread -up-|> android.os.HandlerThread
  sk.uniza.handlerthreadcvicenie.MyHandlerThread +-down- sk.uniza.handlerthreadcvicenie.MyHandlerThread.Callback


right footer


PlantUML diagram generated by SketchIt! (https://bitbucket.org/pmesmeur/sketch.it)
For more information about this tool, please contact philippe.mesmeur@gmail.com
endfooter
@enduml

PlantUML version 1.2020.07beta9(Unknown compile time)
(GPL source distribution)
Java Runtime: Java(TM) SE Runtime Environment
JVM: Java HotSpot(TM) 64-Bit Server VM
Java Version: 1.7.0_25-b15
Operating System: Linux
Default Encoding: UTF-8
Language: en
Country: US
--></g></svg>