<?xml version="1.0" encoding="UTF-8" standalone="no"?><svg xmlns="http://www.w3.org/2000/svg" xmlns:xlink="http://www.w3.org/1999/xlink" contentScriptType="application/ecmascript" contentStyleType="text/css" height="639px" preserveAspectRatio="none" style="width:549px;height:639px;" version="1.1" viewBox="0 0 549 639" width="549px" zoomAndPan="magnify"><defs><filter height="300%" id="fig5ds3knt0ip" width="300%" x="-1" y="-1"><feGaussianBlur result="blurOut" stdDeviation="2.0"/><feColorMatrix in="blurOut" result="blurOut2" type="matrix" values="0 0 0 0 0 0 0 0 0 0 0 0 0 0 0 0 0 0 .4 0"/><feOffset dx="4.0" dy="4.0" in="blurOut2" result="blurOut3"/><feBlend in="SourceGraphic" in2="blurOut3" mode="normal"/></filter></defs><g><text fill="#000000" font-family="sans-serif" font-size="18" lengthAdjust="spacingAndGlyphs" text-decoration="underline" textLength="403" x="64" y="16.708">HANDLERTHREADCVICENIE's Class Diagram</text><text fill="#000000" font-family="sans-serif" font-size="18" lengthAdjust="spacingAndGlyphs" textLength="0" x="268.5" y="37.6611"/><!--MD5=[9c632b4c3228eb00c55faab77bad2982]
cluster sk.uniza.handlerthreadcvicenie--><polygon fill="#FFFFFF" filter="url(#fig5ds3knt0ip)" points="259,170.9063,517,170.9063,524,193.2031,527,193.2031,527,575.9063,259,575.9063,259,170.9063" style="stroke: #000000; stroke-width: 1.5;"/><line style="stroke: #000000; stroke-width: 1.5;" x1="259" x2="524" y1="193.2031" y2="193.2031"/><text fill="#000000" font-family="sans-serif" font-size="14" font-weight="bold" lengthAdjust="spacingAndGlyphs" textLength="252" x="263" y="185.9014">sk.uniza.handlerthreadcvicenie</text><!--MD5=[5a11439e6a9c928fb0d5ec822813d7c6]
cluster androidx.appcompat.app--><polygon fill="#FFFFFF" filter="url(#fig5ds3knt0ip)" points="16,336.4063,225,336.4063,232,358.7031,235,358.7031,235,435.4063,16,435.4063,16,336.4063" style="stroke: #000000; stroke-width: 1.5;"/><line style="stroke: #000000; stroke-width: 1.5;" x1="16" x2="232" y1="358.7031" y2="358.7031"/><text fill="#000000" font-family="sans-serif" font-size="14" font-weight="bold" lengthAdjust="spacingAndGlyphs" textLength="203" x="20" y="351.4014">androidx.appcompat.app</text><!--MD5=[dea9b5bbfa9fcc376e7517230b1e1656]
cluster android.os--><polygon fill="#FFFFFF" filter="url(#fig5ds3knt0ip)" points="294,47.9063,386,47.9063,393,70.2031,448,70.2031,448,146.9063,294,146.9063,294,47.9063" style="stroke: #000000; stroke-width: 1.5;"/><line style="stroke: #000000; stroke-width: 1.5;" x1="294" x2="393" y1="70.2031" y2="70.2031"/><text fill="#000000" font-family="sans-serif" font-size="14" font-weight="bold" lengthAdjust="spacingAndGlyphs" textLength="86" x="298" y="62.9014">android.os</text><!--MD5=[90f976792ab58867b2f3311a3059323a]
class sk.uniza.handlerthreadcvicenie.MainActivity--><rect fill="#FEFECE" filter="url(#fig5ds3knt0ip)" height="73.6094" id="sk.uniza.handlerthreadcvicenie.MainActivity" style="stroke: #A80036; stroke-width: 1.5;" width="155" x="284.5" y="485.9063"/><ellipse cx="323.35" cy="501.9063" fill="#ADD1B2" rx="11" ry="11" style="stroke: #A80036; stroke-width: 1.0;"/><path d="M325.6938,497.5781 C324.7563,497.1406 324.1625,497 323.2875,497 C320.6625,497 318.6625,499.0781 318.6625,501.7969 L318.6625,502.9219 C318.6625,505.5 320.7719,507.3906 323.6625,507.3906 C324.8813,507.3906 326.0375,507.0938 326.7875,506.5469 C327.3656,506.1406 327.6938,505.6875 327.6938,505.2969 C327.6938,504.8438 327.3031,504.4531 326.8344,504.4531 C326.6156,504.4531 326.4125,504.5313 326.225,504.7188 C325.7719,505.2031 325.7719,505.2031 325.5844,505.2969 C325.1625,505.5625 324.475,505.6875 323.7094,505.6875 C321.6625,505.6875 320.3656,504.5938 320.3656,502.8906 L320.3656,501.7969 C320.3656,500.0156 321.6156,498.7031 323.35,498.7031 C323.9281,498.7031 324.5375,498.8594 325.0063,499.1094 C325.4906,499.3906 325.6625,499.6094 325.7563,500.0156 C325.8188,500.4219 325.85,500.5469 325.9906,500.6719 C326.1313,500.8125 326.3656,500.9219 326.5844,500.9219 C326.85,500.9219 327.1156,500.7813 327.2875,500.5625 C327.3969,500.4063 327.4281,500.2188 327.4281,499.7969 L327.4281,498.375 C327.4281,497.9375 327.4125,497.8125 327.3188,497.6563 C327.1625,497.3906 326.8813,497.25 326.5844,497.25 C326.2875,497.25 326.0844,497.3438 325.8656,497.6563 L325.6938,497.5781 Z "/><text fill="#000000" font-family="sans-serif" font-size="12" lengthAdjust="spacingAndGlyphs" textLength="70" x="342.65" y="506.0605">MainActivity</text><line style="stroke: #A80036; stroke-width: 1.5;" x1="285.5" x2="438.5" y1="517.9063" y2="517.9063"/><line style="stroke: #A80036; stroke-width: 1.5;" x1="285.5" x2="438.5" y1="525.9063" y2="525.9063"/><ellipse cx="295.5" cy="536.9063" fill="#84BE84" rx="3" ry="3" style="stroke: #038048; stroke-width: 1.0;"/><text fill="#000000" font-family="sans-serif" font-size="11" lengthAdjust="spacingAndGlyphs" textLength="129" x="304.5" y="540.1167">onImageDownloaded()</text><polygon fill="#FFFF44" points="295.5,544.7109,299.5,548.7109,295.5,552.7109,291.5,548.7109" style="stroke: #B38D22; stroke-width: 1.0;"/><text fill="#000000" font-family="sans-serif" font-size="11" lengthAdjust="spacingAndGlyphs" textLength="61" x="304.5" y="552.9214">onCreate()</text><!--MD5=[27a6c7ce08230c05c642f2721d898e01]
class sk.uniza.handlerthreadcvicenie.MyHandlerThread--><rect fill="#FEFECE" filter="url(#fig5ds3knt0ip)" height="99.2188" id="sk.uniza.handlerthreadcvicenie.MyHandlerThread" style="stroke: #A80036; stroke-width: 1.5;" width="176" x="283" y="205.9063"/><ellipse cx="315.1" cy="221.9063" fill="#ADD1B2" rx="11" ry="11" style="stroke: #A80036; stroke-width: 1.0;"/><path d="M317.4438,217.5781 C316.5063,217.1406 315.9125,217 315.0375,217 C312.4125,217 310.4125,219.0781 310.4125,221.7969 L310.4125,222.9219 C310.4125,225.5 312.5219,227.3906 315.4125,227.3906 C316.6313,227.3906 317.7875,227.0938 318.5375,226.5469 C319.1156,226.1406 319.4438,225.6875 319.4438,225.2969 C319.4438,224.8438 319.0531,224.4531 318.5844,224.4531 C318.3656,224.4531 318.1625,224.5313 317.975,224.7188 C317.5219,225.2031 317.5219,225.2031 317.3344,225.2969 C316.9125,225.5625 316.225,225.6875 315.4594,225.6875 C313.4125,225.6875 312.1156,224.5938 312.1156,222.8906 L312.1156,221.7969 C312.1156,220.0156 313.3656,218.7031 315.1,218.7031 C315.6781,218.7031 316.2875,218.8594 316.7563,219.1094 C317.2406,219.3906 317.4125,219.6094 317.5063,220.0156 C317.5688,220.4219 317.6,220.5469 317.7406,220.6719 C317.8813,220.8125 318.1156,220.9219 318.3344,220.9219 C318.6,220.9219 318.8656,220.7813 319.0375,220.5625 C319.1469,220.4063 319.1781,220.2188 319.1781,219.7969 L319.1781,218.375 C319.1781,217.9375 319.1625,217.8125 319.0688,217.6563 C318.9125,217.3906 318.6313,217.25 318.3344,217.25 C318.0375,217.25 317.8344,217.3438 317.6156,217.6563 L317.4438,217.5781 Z "/><text fill="#000000" font-family="sans-serif" font-size="12" lengthAdjust="spacingAndGlyphs" textLength="106" x="332.9" y="226.0605">MyHandlerThread</text><line style="stroke: #A80036; stroke-width: 1.5;" x1="284" x2="458" y1="237.9063" y2="237.9063"/><rect fill="none" height="6" style="stroke: #C82930; stroke-width: 1.0;" width="6" x="291" y="245.9063"/><text fill="#000000" font-family="sans-serif" font-size="11" lengthAdjust="spacingAndGlyphs" text-decoration="underline" textLength="68" x="303" y="252.1167">TAG : String</text><rect fill="none" height="6" style="stroke: #C82930; stroke-width: 1.0;" width="6" x="291" y="258.7109"/><text fill="#000000" font-family="sans-serif" font-size="11" lengthAdjust="spacingAndGlyphs" textLength="150" x="303" y="264.9214">mWorkerHandler : Handler</text><line style="stroke: #A80036; stroke-width: 1.5;" x1="284" x2="458" y1="271.5156" y2="271.5156"/><ellipse cx="294" cy="282.5156" fill="#84BE84" rx="3" ry="3" style="stroke: #038048; stroke-width: 1.0;"/><text fill="#000000" font-family="sans-serif" font-size="11" lengthAdjust="spacingAndGlyphs" textLength="108" x="303" y="285.7261">MyHandlerThread()</text><ellipse cx="294" cy="295.3203" fill="#84BE84" rx="3" ry="3" style="stroke: #038048; stroke-width: 1.0;"/><text fill="#000000" font-family="sans-serif" font-size="11" lengthAdjust="spacingAndGlyphs" textLength="97" x="303" y="298.5308">prepareHandler()</text><!--MD5=[2935f41d5d221d3707be9ea423b69517]
class sk.uniza.handlerthreadcvicenie.MyHandlerThread.Callback--><rect fill="#FEFECE" filter="url(#fig5ds3knt0ip)" height="60.8047" id="sk.uniza.handlerthreadcvicenie.MyHandlerThread.Callback" style="stroke: #A80036; stroke-width: 1.5;" width="192" x="275" y="364.9063"/><ellipse cx="290" cy="380.9063" fill="#B4A7E5" rx="11" ry="11" style="stroke: #A80036; stroke-width: 1.0;"/><path d="M290.9531,377.6875 L292.6719,377.6875 C293.0625,377.6875 293.25,377.6563 293.375,377.5781 C293.6406,377.4219 293.7813,377.1406 293.7813,376.8438 C293.7813,376.5781 293.6719,376.3125 293.4375,376.1406 C293.2656,376.0313 293.125,376 292.6719,376 L287.5313,376 C287.0938,376 286.9688,376.0156 286.8125,376.1094 C286.5625,376.2656 286.4063,376.5625 286.4063,376.8438 C286.4063,377.125 286.5469,377.375 286.7656,377.5469 C286.9219,377.6563 287.1094,377.6875 287.5313,377.6875 L289.25,377.6875 L289.25,384.2031 L287.5313,384.2031 C287.0938,384.2031 286.9688,384.2188 286.8125,384.3281 C286.5625,384.4844 286.4063,384.7656 286.4063,385.0625 C286.4063,385.3125 286.5469,385.5781 286.7656,385.7344 C286.9219,385.8594 287.125,385.9063 287.5313,385.9063 L292.6719,385.9063 C293.4219,385.9063 293.7813,385.625 293.7813,385.0625 C293.7813,384.7813 293.6719,384.5313 293.4375,384.3594 C293.2656,384.2344 293.125,384.2031 292.6719,384.2031 L290.9531,384.2031 L290.9531,377.6875 Z "/><text fill="#000000" font-family="sans-serif" font-size="12" font-style="italic" lengthAdjust="spacingAndGlyphs" textLength="160" x="304" y="385.0605">MyHandlerThread.Callback</text><line style="stroke: #A80036; stroke-width: 1.5;" x1="276" x2="466" y1="396.9063" y2="396.9063"/><line style="stroke: #A80036; stroke-width: 1.5;" x1="276" x2="466" y1="404.9063" y2="404.9063"/><ellipse cx="286" cy="415.9063" fill="#84BE84" rx="3" ry="3" style="stroke: #038048; stroke-width: 1.0;"/><text fill="#000000" font-family="sans-serif" font-size="11" font-style="italic" lengthAdjust="spacingAndGlyphs" textLength="126" x="295" y="419.1167">onImageDownloaded()</text><!--MD5=[6971ca23cf0557f0436b13ef124bfeb7]
class androidx.appcompat.app.AppCompatActivity--><rect fill="#FEFECE" filter="url(#fig5ds3knt0ip)" height="48" id="androidx.appcompat.app.AppCompatActivity" style="stroke: #A80036; stroke-width: 1.5;" width="145" x="73.5" y="371.4063"/><ellipse cx="88.5" cy="387.4063" fill="#ADD1B2" rx="11" ry="11" style="stroke: #A80036; stroke-width: 1.0;"/><path d="M90.8438,383.0781 C89.9063,382.6406 89.3125,382.5 88.4375,382.5 C85.8125,382.5 83.8125,384.5781 83.8125,387.2969 L83.8125,388.4219 C83.8125,391 85.9219,392.8906 88.8125,392.8906 C90.0313,392.8906 91.1875,392.5938 91.9375,392.0469 C92.5156,391.6406 92.8438,391.1875 92.8438,390.7969 C92.8438,390.3438 92.4531,389.9531 91.9844,389.9531 C91.7656,389.9531 91.5625,390.0313 91.375,390.2188 C90.9219,390.7031 90.9219,390.7031 90.7344,390.7969 C90.3125,391.0625 89.625,391.1875 88.8594,391.1875 C86.8125,391.1875 85.5156,390.0938 85.5156,388.3906 L85.5156,387.2969 C85.5156,385.5156 86.7656,384.2031 88.5,384.2031 C89.0781,384.2031 89.6875,384.3594 90.1563,384.6094 C90.6406,384.8906 90.8125,385.1094 90.9063,385.5156 C90.9688,385.9219 91,386.0469 91.1406,386.1719 C91.2813,386.3125 91.5156,386.4219 91.7344,386.4219 C92,386.4219 92.2656,386.2813 92.4375,386.0625 C92.5469,385.9063 92.5781,385.7188 92.5781,385.2969 L92.5781,383.875 C92.5781,383.4375 92.5625,383.3125 92.4688,383.1563 C92.3125,382.8906 92.0313,382.75 91.7344,382.75 C91.4375,382.75 91.2344,382.8438 91.0156,383.1563 L90.8438,383.0781 Z "/><text fill="#000000" font-family="sans-serif" font-size="12" lengthAdjust="spacingAndGlyphs" textLength="113" x="102.5" y="391.5605">AppCompatActivity</text><line style="stroke: #A80036; stroke-width: 1.5;" x1="74.5" x2="217.5" y1="403.4063" y2="403.4063"/><line style="stroke: #A80036; stroke-width: 1.5;" x1="74.5" x2="217.5" y1="411.4063" y2="411.4063"/><!--MD5=[06c02f388a7ceee73f849f15ed40bf2d]
class android.os.HandlerThread--><rect fill="#FEFECE" filter="url(#fig5ds3knt0ip)" height="48" id="android.os.HandlerThread" style="stroke: #A80036; stroke-width: 1.5;" width="121" x="310.5" y="82.9063"/><ellipse cx="325.5" cy="98.9063" fill="#ADD1B2" rx="11" ry="11" style="stroke: #A80036; stroke-width: 1.0;"/><path d="M327.8438,94.5781 C326.9063,94.1406 326.3125,94 325.4375,94 C322.8125,94 320.8125,96.0781 320.8125,98.7969 L320.8125,99.9219 C320.8125,102.5 322.9219,104.3906 325.8125,104.3906 C327.0313,104.3906 328.1875,104.0938 328.9375,103.5469 C329.5156,103.1406 329.8438,102.6875 329.8438,102.2969 C329.8438,101.8438 329.4531,101.4531 328.9844,101.4531 C328.7656,101.4531 328.5625,101.5313 328.375,101.7188 C327.9219,102.2031 327.9219,102.2031 327.7344,102.2969 C327.3125,102.5625 326.625,102.6875 325.8594,102.6875 C323.8125,102.6875 322.5156,101.5938 322.5156,99.8906 L322.5156,98.7969 C322.5156,97.0156 323.7656,95.7031 325.5,95.7031 C326.0781,95.7031 326.6875,95.8594 327.1563,96.1094 C327.6406,96.3906 327.8125,96.6094 327.9063,97.0156 C327.9688,97.4219 328,97.5469 328.1406,97.6719 C328.2813,97.8125 328.5156,97.9219 328.7344,97.9219 C329,97.9219 329.2656,97.7813 329.4375,97.5625 C329.5469,97.4063 329.5781,97.2188 329.5781,96.7969 L329.5781,95.375 C329.5781,94.9375 329.5625,94.8125 329.4688,94.6563 C329.3125,94.3906 329.0313,94.25 328.7344,94.25 C328.4375,94.25 328.2344,94.3438 328.0156,94.6563 L327.8438,94.5781 Z "/><text fill="#000000" font-family="sans-serif" font-size="12" lengthAdjust="spacingAndGlyphs" textLength="89" x="339.5" y="103.0605">HandlerThread</text><line style="stroke: #A80036; stroke-width: 1.5;" x1="311.5" x2="430.5" y1="114.9063" y2="114.9063"/><line style="stroke: #A80036; stroke-width: 1.5;" x1="311.5" x2="430.5" y1="122.9063" y2="122.9063"/><!--MD5=[fb49bb7c759ea63718b406307c395369]
reverse link sk.uniza.handlerthreadcvicenie.MyHandlerThread.Callback to sk.uniza.handlerthreadcvicenie.MainActivity--><path d="M367.414,446.4113 C366.473,459.5273 365.477,473.4193 364.599,485.6613 " fill="none" id="sk.uniza.handlerthreadcvicenie.MyHandlerThread.Callback&lt;-sk.uniza.handlerthreadcvicenie.MainActivity" style="stroke: #A80036; stroke-width: 1.0; stroke-dasharray: 7.0,7.0;"/><polygon fill="none" points="360.454,445.5963,368.867,426.1482,374.419,446.5973,360.454,445.5963" style="stroke: #A80036; stroke-width: 1.0;"/><!--MD5=[2123e23e32b312feae266c11ec900b99]
reverse link androidx.appcompat.app.AppCompatActivity to sk.uniza.handlerthreadcvicenie.MainActivity--><path d="M203.157,429.6153 C232.891,446.8913 269.285,468.0373 299.732,485.7273 " fill="none" id="androidx.appcompat.app.AppCompatActivity&lt;-sk.uniza.handlerthreadcvicenie.MainActivity" style="stroke: #A80036; stroke-width: 1.0;"/><polygon fill="none" points="199.394,435.5253,185.618,419.4253,206.427,423.4203,199.394,435.5253" style="stroke: #A80036; stroke-width: 1.0;"/><!--MD5=[85555a38e2347a9f8bb71771179f1d46]
reverse link android.os.HandlerThread to sk.uniza.handlerthreadcvicenie.MyHandlerThread--><path d="M371,151.3852 C371,168.5073 371,188.2453 371,205.8333 " fill="none" id="android.os.HandlerThread&lt;-sk.uniza.handlerthreadcvicenie.MyHandlerThread" style="stroke: #A80036; stroke-width: 1.0;"/><polygon fill="none" points="364,151.1193,371,131.1193,378,151.1193,364,151.1193" style="stroke: #A80036; stroke-width: 1.0;"/><!--MD5=[8048c836f66074b7e6ad8b6e2b833fef]
reverse link sk.uniza.handlerthreadcvicenie.MyHandlerThread to sk.uniza.handlerthreadcvicenie.MyHandlerThread.Callback--><path d="M371,320.3063 C371,335.7833 371,351.6043 371,364.6323 " fill="none" id="sk.uniza.handlerthreadcvicenie.MyHandlerThread&lt;-sk.uniza.handlerthreadcvicenie.MyHandlerThread.Callback" style="stroke: #A80036; stroke-width: 1.0;"/><ellipse cx="371" cy="313.0603" fill="#FFFFFF" rx="8" ry="8" style="stroke: #A80036; stroke-width: 1.0;"/><line style="stroke: #A80036; stroke-width: 1.0;" x1="371" x2="371" y1="321.0603" y2="305.0603"/><line style="stroke: #A80036; stroke-width: 1.0;" x1="363" x2="379" y1="313.0603" y2="313.0603"/><text fill="#888888" font-family="sans-serif" font-size="10" lengthAdjust="spacingAndGlyphs" textLength="0" x="531" y="591.1885"/><text fill="#888888" font-family="sans-serif" font-size="10" lengthAdjust="spacingAndGlyphs" textLength="0" x="531" y="602.8291"/><text fill="#888888" font-family="sans-serif" font-size="10" lengthAdjust="spacingAndGlyphs" textLength="455" x="76" y="614.4697">PlantUML diagram generated by SketchIt! (https://bitbucket.org/pmesmeur/sketch.it)</text><text fill="#888888" font-family="sans-serif" font-size="10" lengthAdjust="spacingAndGlyphs" textLength="454" x="77" y="626.1104">For more information about this tool, please contact philippe.mesmeur@gmail.com</text><!--MD5=[d085cd86097212d57e8e38fe242b3904]
@startuml
title __HANDLERTHREADCVICENIE's Class Diagram__\n

  namespace sk.uniza.handlerthreadcvicenie {
    class sk.uniza.handlerthreadcvicenie.MainActivity {
        + onImageDownloaded()
        # onCreate()
    }
  }
  

  namespace sk.uniza.handlerthreadcvicenie {
    class sk.uniza.handlerthreadcvicenie.MyHandlerThread {
        {static} - TAG : String
        - mWorkerHandler : Handler
        + MyHandlerThread()
        + prepareHandler()
    }
  }
  

  namespace sk.uniza.handlerthreadcvicenie {
    interface sk.uniza.handlerthreadcvicenie.MyHandlerThread.Callback {
        {abstract} + onImageDownloaded()
    }
  }
  

  sk.uniza.handlerthreadcvicenie.MainActivity .up.|> sk.uniza.handlerthreadcvicenie.MyHandlerThread.Callback
  sk.uniza.handlerthreadcvicenie.MainActivity -up-|> androidx.appcompat.app.AppCompatActivity
  sk.uniza.handlerthreadcvicenie.MyHandlerThread -up-|> android.os.HandlerThread
  sk.uniza.handlerthreadcvicenie.MyHandlerThread +-down- sk.uniza.handlerthreadcvicenie.MyHandlerThread.Callback


right footer


PlantUML diagram generated by SketchIt! (https://bitbucket.org/pmesmeur/sketch.it)
For more information about this tool, please contact philippe.mesmeur@gmail.com
endfooter
@enduml

PlantUML version 1.2020.13(Sat Jun 13 12:26:38 UTC 2020)
(GPL source distribution)
Java Runtime: Java(TM) SE Runtime Environment
JVM: Java HotSpot(TM) 64-Bit Server VM
Default Encoding: UTF-8
Language: en
Country: US
--></g></svg>