<?xml version="1.0" encoding="UTF-8" standalone="no"?><svg xmlns="http://www.w3.org/2000/svg" xmlns:xlink="http://www.w3.org/1999/xlink" contentScriptType="application/ecmascript" contentStyleType="text/css" height="514px" preserveAspectRatio="none" style="width:531px;height:514px;" version="1.1" viewBox="0 0 531 514" width="531px" zoomAndPan="magnify"><defs/><g><rect fill="#FFFFFF" height="127.875" rx="2" ry="2" style="stroke: #000000; stroke-width: 2.0;" width="315" x="113" y="236.8125"/><line style="stroke: #EEEEEE; stroke-width: 1.0; stroke-dasharray: 5.0,5.0;" x1="183" x2="183" y1="39.9688" y2="467.5938"/><rect fill="#1A618C" height="69.9375" style="stroke: #EEEEEE; stroke-width: 1.0;" width="10" x="178" y="112.9063"/><rect fill="#1A618C" height="35.9688" style="stroke: #EEEEEE; stroke-width: 1.0;" width="10" x="178" y="307.7188"/><rect fill="#1A618C" height="27.9688" style="stroke: #EEEEEE; stroke-width: 1.0;" width="10" x="178" y="387.6875"/><line style="stroke: #EEEEEE; stroke-width: 1.0; stroke-dasharray: 5.0,5.0;" x1="353" x2="353" y1="47.9688" y2="467.5938"/><rect fill="#1A618C" height="188.8438" style="stroke: #EEEEEE; stroke-width: 1.0;" width="10" x="348" y="190.8438"/><rect fill="#1A618C" height="35.9688" rx="2" ry="2" style="stroke: #EEEEEE; stroke-width: 3.0;" width="108" x="129" y="3"/><text fill="#EEEEEE" font-family="sans-serif" font-size="12" lengthAdjust="spacingAndGlyphs" textLength="86" x="140" y="25.1387">Hlavné vlákno</text><rect fill="#1A618C" height="35.9688" rx="2" ry="2" style="stroke: #EEEEEE; stroke-width: 3.0;" width="108" x="129" y="467.5938"/><text fill="#EEEEEE" font-family="sans-serif" font-size="12" lengthAdjust="spacingAndGlyphs" textLength="86" x="140" y="489.7324">Hlavné vlákno</text><rect fill="#1A618C" height="35.9688" rx="2" ry="2" style="stroke: #EEEEEE; stroke-width: 3.0;" width="87" x="309.5" y="467.5938"/><text fill="#EEEEEE" font-family="sans-serif" font-size="12" lengthAdjust="spacingAndGlyphs" textLength="65" x="320.5" y="489.7324">AsyncTask</text><rect fill="#1A618C" height="35.9688" rx="2" ry="2" style="stroke: #EEEEEE; stroke-width: 3.0;" width="87" x="309.5" y="47.9688"/><text fill="#EEEEEE" font-family="sans-serif" font-size="12" lengthAdjust="spacingAndGlyphs" textLength="65" x="320.5" y="70.1074">AsyncTask</text><polygon fill="#EEEEEE" points="297.5,71.9375,307.5,75.9375,297.5,79.9375,301.5,75.9375" style="stroke: #EEEEEE; stroke-width: 1.0;"/><line style="stroke: #EEEEEE; stroke-width: 3.0;" x1="183" x2="303.5" y1="75.9375" y2="75.9375"/><text fill="#EEEEEE" font-family="sans-serif" font-size="12" font-weight="bold" lengthAdjust="spacingAndGlyphs" textLength="29" x="194" y="67.1074">new</text><polygon fill="#EEEEEE" points="166,108.9063,176,112.9063,166,116.9063,170,112.9063" style="stroke: #EEEEEE; stroke-width: 1.0;"/><line style="stroke: #EEEEEE; stroke-width: 1.0;" x1="3" x2="172" y1="112.9063" y2="112.9063"/><text fill="#EEEEEE" font-family="sans-serif" font-size="12" font-weight="bold" lengthAdjust="spacingAndGlyphs" textLength="69" x="14" y="104.0762">execute()</text><line style="stroke: #EEEEEE; stroke-width: 1.0;" x1="188" x2="230" y1="148.875" y2="148.875"/><line style="stroke: #EEEEEE; stroke-width: 1.0;" x1="230" x2="230" y1="148.875" y2="161.875"/><line style="stroke: #EEEEEE; stroke-width: 1.0;" x1="189" x2="230" y1="161.875" y2="161.875"/><polygon fill="#EEEEEE" points="199,157.875,189,161.875,199,165.875,195,161.875" style="stroke: #EEEEEE; stroke-width: 1.0;"/><text fill="#EEEEEE" font-family="sans-serif" font-size="12" font-weight="bold" lengthAdjust="spacingAndGlyphs" textLength="111" x="199" y="140.0449">onPreExecute()</text><path d="M50,127.9063 L50,168.9063 A2,2 0 0 0 52,170.9063 L176,170.9063 A2,2 0 0 0 178,168.9063 L178,135.9063 L168,125.9063 L52,125.9063 A2,2 0 0 0 50,127.9063 " fill="#FBFB77" style="stroke: #A80036; stroke-width: 1.0;"/><path d="M168,125.9063 L168,134.9063 A1,1 0 0 0 169,135.9063 L178,135.9063 L168,125.9063 " fill="#FBFB77" style="stroke: #A80036; stroke-width: 1.0;"/><text fill="#EEEEEE" font-family="sans-serif" font-size="12" lengthAdjust="spacingAndGlyphs" textLength="99" x="60" y="146.0449">Prípravné práce</text><text fill="#EEEEEE" font-family="sans-serif" font-size="12" lengthAdjust="spacingAndGlyphs" textLength="75" x="60" y="160.0137">na UI vlákne</text><polygon fill="#EEEEEE" points="341,178.8438,351,182.8438,341,186.8438,345,182.8438" style="stroke: #EEEEEE; stroke-width: 1.0;"/><line style="stroke: #EEEEEE; stroke-width: 3.0;" x1="188" x2="347" y1="182.8438" y2="182.8438"/><path d="M363,197.8438 L363,224.8438 A2,2 0 0 0 365,226.8438 L517,226.8438 A2,2 0 0 0 519,224.8438 L519,205.8438 L509,195.8438 L365,195.8438 A2,2 0 0 0 363,197.8438 " fill="#B0C4DE" style="stroke: #A80036; stroke-width: 1.0;"/><path d="M509,195.8438 L509,204.8438 A1,1 0 0 0 510,205.8438 L519,205.8438 L509,195.8438 " fill="#B0C4DE" style="stroke: #A80036; stroke-width: 1.0;"/><text fill="#EEEEEE" font-family="sans-serif" font-size="12" font-weight="bold" lengthAdjust="spacingAndGlyphs" textLength="127" x="373" y="215.9824">doInBackground()</text><path d="M115,236.8125 L412,236.8125 L412,263.8125 L402,273.8125 L113,273.8125 L113,238.8125 " fill="#EEEEEE" style="stroke: #000000; stroke-width: 1.0;"/><rect fill="none" height="127.875" rx="2" ry="2" style="stroke: #000000; stroke-width: 2.0;" width="315" x="113" y="236.8125"/><text fill="#EEEEEE" font-family="sans-serif" font-size="12" font-weight="bold" lengthAdjust="spacingAndGlyphs" textLength="246" x="132" y="252.9512">priebežné informovanie uživateľa</text><text fill="#EEEEEE" font-family="sans-serif" font-size="12" font-weight="bold" lengthAdjust="spacingAndGlyphs" textLength="191" x="132" y="266.9199">o prebehu úlohy na pozadí</text><polygon fill="#EEEEEE" points="199,303.7188,189,307.7188,199,311.7188,195,307.7188" style="stroke: #EEEEEE; stroke-width: 1.0;"/><line style="stroke: #EEEEEE; stroke-width: 3.0;" x1="193" x2="347" y1="307.7188" y2="307.7188"/><text fill="#EEEEEE" font-family="sans-serif" font-size="12" font-weight="bold" lengthAdjust="spacingAndGlyphs" textLength="128" x="209" y="298.8887">publishProgress()</text><line style="stroke: #EEEEEE; stroke-width: 1.0;" x1="188" x2="230" y1="343.6875" y2="343.6875"/><line style="stroke: #EEEEEE; stroke-width: 1.0;" x1="230" x2="230" y1="343.6875" y2="356.6875"/><line style="stroke: #EEEEEE; stroke-width: 1.0;" x1="183" x2="230" y1="356.6875" y2="356.6875"/><polygon fill="#EEEEEE" points="193,352.6875,183,356.6875,193,360.6875,189,356.6875" style="stroke: #EEEEEE; stroke-width: 1.0;"/><text fill="#EEEEEE" font-family="sans-serif" font-size="12" font-weight="bold" lengthAdjust="spacingAndGlyphs" textLength="105" x="199" y="334.8574">aktualizácia UI</text><polygon fill="#EEEEEE" points="194,375.6875,184,379.6875,194,383.6875,190,379.6875" style="stroke: #EEEEEE; stroke-width: 1.0;"/><line style="stroke: #EEEEEE; stroke-width: 3.0;" x1="188" x2="347" y1="379.6875" y2="379.6875"/><line style="stroke: #EEEEEE; stroke-width: 1.0;" x1="188" x2="230" y1="415.6563" y2="415.6563"/><line style="stroke: #EEEEEE; stroke-width: 1.0;" x1="230" x2="230" y1="415.6563" y2="428.6563"/><line style="stroke: #EEEEEE; stroke-width: 1.0;" x1="183" x2="230" y1="428.6563" y2="428.6563"/><polygon fill="#EEEEEE" points="193,424.6563,183,428.6563,193,432.6563,189,428.6563" style="stroke: #EEEEEE; stroke-width: 1.0;"/><text fill="#EEEEEE" font-family="sans-serif" font-size="12" font-weight="bold" lengthAdjust="spacingAndGlyphs" textLength="119" x="199" y="406.8262">onPostExecute()</text><path d="M8,394.6875 L8,449.6875 A2,2 0 0 0 10,451.6875 L176,451.6875 A2,2 0 0 0 178,449.6875 L178,402.6875 L168,392.6875 L10,392.6875 A2,2 0 0 0 8,394.6875 " fill="#FBFB77" style="stroke: #A80036; stroke-width: 1.0;"/><path d="M168,392.6875 L168,401.6875 A1,1 0 0 0 169,402.6875 L178,402.6875 L168,392.6875 " fill="#FBFB77" style="stroke: #A80036; stroke-width: 1.0;"/><text fill="#EEEEEE" font-family="sans-serif" font-size="12" lengthAdjust="spacingAndGlyphs" textLength="110" x="18" y="412.8262">Záverečné práce,</text><text fill="#EEEEEE" font-family="sans-serif" font-size="12" lengthAdjust="spacingAndGlyphs" textLength="141" x="18" y="426.7949">upratanie po ukončený</text><text fill="#EEEEEE" font-family="sans-serif" font-size="12" lengthAdjust="spacingAndGlyphs" textLength="101" x="18" y="440.7637">práce na pozadí</text><!--MD5=[d1e377e411c366df536487eecd4445ad]
@startuml
!pragma teoz true



skinparam Padding 4
skinparam RoundCorner 4
skinparam Shadowing false

skinparam Default {
  FontColor #EEEEEE
  FontSize 12
}

skinparam Arrow {
  Color #EEEEEE
  FontColor #EEEEEE
  FontStyle Bold
}

skinparam activityDiamond {
  BackgroundColor #1A618C
  BorderColor #EEEEEE
  FontColor #EEEEEE
}

skinparam activity {
  BackgroundColor #1A618C
  BorderColor #EEEEEE
  FontColor #EEEEEE
}

skinparam package {
  FontColor #EEEEEE
  BackgroundColor #1A618C
  BorderColor #EEEEEE
}
skinparam node {
  FontColor #EEEEEE
  BackgroundColor #7a209f
  BorderColor #EEEEEE
}
skinparam component {
  BackgroundColor #1A618C
  BorderColor #EEEEEE
  FontColor #EEEEEE
  Style uml2
}

skinparam database {
  BackgroundColor #1A618C
  BorderColor #EEEEEE
  FontColor #EEEEEE
}

skinparam cloud {
  BackgroundColor #1A618C
  BorderColor #EEEEEE
  FontColor #EEEEEE
}

skinparam collections {
  BackgroundColor #1A618C
  BorderColor #EEEEEE
  FontColor #EEEEEE
}
skinparam Control {
  BackgroundColor #1A618C
  BorderColor #EEEEEE
  FontColor #EEEEEE
}
skinparam Boundary {
  BackgroundColor #1A618C
  BorderColor #EEEEEE
  FontColor #EEEEEE
}
skinparam Entity {
  BackgroundColor #1A618C
  BorderColor #EEEEEE
  FontColor #EEEEEE
}
skinparam interface {
  BackgroundColor #1A618C
  BorderColor #EEEEEE
  FontColor #EEEEEE
}
skinparam SequenceParticipantBorderThickness 3
skinparam sequence {
  ParticipantBackgroundColor #1A618C
  ParticipantBorderColor #EEEEEE
  ParticipantFontStyle normal
  ParticipantFontColor #EEEEEE
  LifeLineBorderColor #EEEEEE
  LifeLineBackgroundColor #1A618C
  ArrowColor #EEEEEE
  ArrowBorderColor #EEEEEE
  ArrowFontColor #EEEEEE
  ArrowThickness 3
  ActorBackgroundColor #1A618C
  ActorBorderColor #EEEEEE
  ActorFontColor #EEEEEE
}


skinparam rectangle<<person>> {
  StereotypeFontColor #EEEEEE
  FontColor #EEEEEE
  BackgroundColor #1A618C
  BorderColor #EEEEEE
  BorderThickness 3
}

skinparam rectangle<<external_person>> {
  StereotypeFontColor #EEEEEE
  FontColor #EEEEEE
  BackgroundColor #616768
  BorderColor #EEEEEE
  BorderThickness 3
}

skinparam rectangle<<system>> {
  StereotypeFontColor #EEEEEE
  FontColor #EEEEEE
  BackgroundColor #1A618C
  BorderColor #EEEEEE
  BorderThickness 3
}

skinparam rectangle<<external_system>> {
  StereotypeFontColor #EEEEEE
  FontColor #EEEEEE
  BackgroundColor #616768
  BorderColor #EEEEEE
  BorderThickness 3
}

skinparam database<<system>> {
  StereotypeFontColor #EEEEEE
  FontColor #EEEEEE
  BackgroundColor #1A618C
  BorderColor #EEEEEE
  BorderThickness 3
}

skinparam database<<external_system>> {
  StereotypeFontColor #EEEEEE
  FontColor #EEEEEE
  BackgroundColor #616768
  BorderColor #EEEEEE
  BorderThickness 3
}

skinparam rectangle<<boundary>> {
  Shadowing false
  StereotypeFontSize 0
  BackgroundColor #7a209f
  StereotypeFontColor #EEEEEE
  FontColor #EEEEEE
  BorderColor #EEEEEE
  BorderStyle dashed
  BorderThickness 3
}
skinparam rectangle<<container>> {
  Shadowing false
  StereotypeFontSize 14
  BackgroundColor #1A618C
  StereotypeFontColor #EEEEEE
  FontColor #EEEEEE
  BorderColor #EEEEEE
  BorderThickness 3
}
participant "Hlavné vlákno" as UI
create "AsyncTask" as AT
UI -> AT : new
-> UI ++ : execute()
UI->UI: onPreExecute()
note left: Prípravné práce\nna UI vlákne
UI->AT
deactivate UI
activate AT
note right of AT #LightSteelBlue
<b>doInBackground()</b>
end note
group priebežné informovanie uživateľa\no prebehu úlohy na pozadí  
AT -> UI++ :publishProgress()
UI -> UI- - :aktualizácia UI 
end
AT -> UI 
deactivate AT    
activate UI
UI -> UI - -: onPostExecute()
note left: Záverečné práce,\nupratanie po ukončený\npráce na pozadí
@enduml

PlantUML version 1.2020.09beta15(Unknown compile time)
(GPL source distribution)
Java Runtime: Java(TM) SE Runtime Environment
JVM: Java HotSpot(TM) 64-Bit Server VM
Java Version: 14.0.1+7
Operating System: Linux
Default Encoding: UTF-8
Language: en
Country: US
--></g></svg>