<?xml version="1.0" encoding="UTF-8" standalone="no"?><svg xmlns="http://www.w3.org/2000/svg" xmlns:xlink="http://www.w3.org/1999/xlink" contentScriptType="application/ecmascript" contentStyleType="text/css" height="1925px" preserveAspectRatio="none" style="width:1024px;height:1925px;" version="1.1" viewBox="0 0 1024 1925" width="1024px" zoomAndPan="magnify"><defs/><g><rect fill="#DDDDDD" height="1910.2813" rx="2" ry="2" style="stroke: #A80036; stroke-width: 1.0;" width="453" x="4" y="4"/><text fill="#444444" font-family="sans-serif" font-size="12" font-weight="bold" lengthAdjust="spacingAndGlyphs" textLength="100" x="180.5" y="19.1387">Hlavné vlákno</text><rect fill="#DDDDDD" height="1910.2813" rx="2" ry="2" style="stroke: #A80036; stroke-width: 1.0;" width="434" x="493" y="4"/><text fill="#444444" font-family="sans-serif" font-size="12" font-weight="bold" lengthAdjust="spacingAndGlyphs" textLength="119" x="650.5" y="19.1387">Pracovné vlákno</text><rect fill="#66BCF0" height="1671.5313" style="stroke: #444444; stroke-width: 1.0;" width="10" x="106" y="179.8125"/><rect fill="#66BCF0" height="180.8438" style="stroke: #444444; stroke-width: 1.0;" width="10" x="359" y="962.0313"/><rect fill="#66BCF0" height="166.875" style="stroke: #444444; stroke-width: 1.0;" width="10" x="359" y="1261.7813"/><rect fill="#66BCF0" height="126.9063" style="stroke: #444444; stroke-width: 1.0;" width="10" x="359" y="1547.5625"/><rect fill="#66BCF0" height="41.9688" style="stroke: #444444; stroke-width: 1.0;" width="10" x="359" y="1793.375"/><rect fill="#66BCF0" height="1513.6875" style="stroke: #444444; stroke-width: 1.0;" width="10" x="604" y="337.6563"/><rect fill="#66BCF0" height="242.75" style="stroke: #444444; stroke-width: 1.0;" width="10" x="841" y="643.3438"/><rect fill="#66BCF0" height="187.8438" style="stroke: #444444; stroke-width: 1.0;" width="10" x="841" y="998"/><rect fill="#66BCF0" height="173.875" style="stroke: #444444; stroke-width: 1.0;" width="10" x="841" y="1297.75"/><rect fill="#66BCF0" height="133.9063" style="stroke: #444444; stroke-width: 1.0;" width="10" x="841" y="1583.5313"/><line style="stroke: #444444; stroke-width: 1.0; stroke-dasharray: 5.0,5.0;" x1="111" x2="111" y1="131.375" y2="1860.3438"/><line style="stroke: #444444; stroke-width: 1.0; stroke-dasharray: 5.0,5.0;" x1="364" x2="364" y1="80.9063" y2="1860.3438"/><line style="stroke: #444444; stroke-width: 1.0; stroke-dasharray: 5.0,5.0;" x1="609" x2="609" y1="289.2188" y2="1860.3438"/><line style="stroke: #444444; stroke-width: 1.0; stroke-dasharray: 5.0,5.0;" x1="846" x2="846" y1="228.2813" y2="1860.3438"/><rect fill="#66BCF0" height="49.9375" rx="2" ry="2" style="stroke: #444444; stroke-width: 3.0;" width="206" x="8" y="1859.3438"/><ellipse cx="25" cy="1876.3438" fill="#ADD1B2" rx="10" ry="10" style="stroke: #444444; stroke-width: 1.0;"/><path d="M26.8594,1873.0938 C26.2031,1872.7813 25.7813,1872.6875 25.1563,1872.6875 C23.3125,1872.6875 21.8906,1874.1406 21.8906,1876.0625 L21.8906,1876.8594 C21.8906,1878.6875 23.3906,1880.0156 25.4219,1880.0156 C26.2813,1880.0156 27.1094,1879.7969 27.625,1879.4063 C28.0469,1879.125 28.2656,1878.8125 28.2656,1878.5313 C28.2656,1878.2188 27.9844,1877.9375 27.6719,1877.9375 C27.5156,1877.9375 27.375,1878 27.2344,1878.125 C26.9063,1878.4688 26.9063,1878.4688 26.7813,1878.5313 C26.4844,1878.7188 26,1878.8125 25.4531,1878.8125 C24.0156,1878.8125 23.0938,1878.0313 23.0938,1876.8281 L23.0938,1876.0625 C23.0938,1874.7969 23.9844,1873.875 25.2031,1873.875 C25.6094,1873.875 26.0469,1873.9844 26.375,1874.1719 C26.7188,1874.3594 26.8438,1874.5156 26.9063,1874.7969 C26.9531,1875.0938 26.9688,1875.1719 27.0625,1875.2656 C27.1563,1875.375 27.3281,1875.4375 27.4844,1875.4375 C27.6875,1875.4375 27.8594,1875.3438 27.9844,1875.1875 C28.0625,1875.0781 28.0938,1874.9531 28.0938,1874.6406 L28.0938,1873.6406 C28.0938,1873.3438 28.0781,1873.25 28,1873.1406 C27.8906,1872.9531 27.7031,1872.8438 27.4844,1872.8438 C27.2813,1872.8438 27.1406,1872.9219 26.9844,1873.1406 L26.8594,1873.0938 Z "/><text fill="#444444" font-family="sans-serif" font-size="12" font-style="italic" lengthAdjust="spacingAndGlyphs" textLength="61" x="93.5" y="1881.4824">«Handler»</text><text fill="#444444" font-family="sans-serif" font-size="12" lengthAdjust="spacingAndGlyphs" textLength="158" x="45" y="1895.4512">Handler pre hlavné vlákno</text><rect fill="#66BCF0" height="49.9375" rx="2" ry="2" style="stroke: #444444; stroke-width: 3.0;" width="178" x="275" y="29.9688"/><ellipse cx="292" cy="46.9688" fill="#ADD1B2" rx="10" ry="10" style="stroke: #444444; stroke-width: 1.0;"/><path d="M293.8594,43.7188 C293.2031,43.4063 292.7813,43.3125 292.1563,43.3125 C290.3125,43.3125 288.8906,44.7656 288.8906,46.6875 L288.8906,47.4844 C288.8906,49.3125 290.3906,50.6406 292.4219,50.6406 C293.2813,50.6406 294.1094,50.4219 294.625,50.0313 C295.0469,49.75 295.2656,49.4375 295.2656,49.1563 C295.2656,48.8438 294.9844,48.5625 294.6719,48.5625 C294.5156,48.5625 294.375,48.625 294.2344,48.75 C293.9063,49.0938 293.9063,49.0938 293.7813,49.1563 C293.4844,49.3438 293,49.4375 292.4531,49.4375 C291.0156,49.4375 290.0938,48.6563 290.0938,47.4531 L290.0938,46.6875 C290.0938,45.4219 290.9844,44.5 292.2031,44.5 C292.6094,44.5 293.0469,44.6094 293.375,44.7969 C293.7188,44.9844 293.8438,45.1406 293.9063,45.4219 C293.9531,45.7188 293.9688,45.7969 294.0625,45.8906 C294.1563,46 294.3281,46.0625 294.4844,46.0625 C294.6875,46.0625 294.8594,45.9688 294.9844,45.8125 C295.0625,45.7031 295.0938,45.5781 295.0938,45.2656 L295.0938,44.2656 C295.0938,43.9688 295.0781,43.875 295,43.7656 C294.8906,43.5781 294.7031,43.4688 294.4844,43.4688 C294.2813,43.4688 294.1406,43.5469 293.9844,43.7656 L293.8594,43.7188 Z "/><text fill="#444444" font-family="sans-serif" font-size="12" font-style="italic" lengthAdjust="spacingAndGlyphs" textLength="130" x="312" y="52.1074">«AppCompatActivity»</text><text fill="#444444" font-family="sans-serif" font-size="12" lengthAdjust="spacingAndGlyphs" textLength="70" x="342" y="66.0762">MainActivity</text><rect fill="#66BCF0" height="49.9375" rx="2" ry="2" style="stroke: #444444; stroke-width: 3.0;" width="178" x="275" y="1859.3438"/><ellipse cx="292" cy="1876.3438" fill="#ADD1B2" rx="10" ry="10" style="stroke: #444444; stroke-width: 1.0;"/><path d="M293.8594,1873.0938 C293.2031,1872.7813 292.7813,1872.6875 292.1563,1872.6875 C290.3125,1872.6875 288.8906,1874.1406 288.8906,1876.0625 L288.8906,1876.8594 C288.8906,1878.6875 290.3906,1880.0156 292.4219,1880.0156 C293.2813,1880.0156 294.1094,1879.7969 294.625,1879.4063 C295.0469,1879.125 295.2656,1878.8125 295.2656,1878.5313 C295.2656,1878.2188 294.9844,1877.9375 294.6719,1877.9375 C294.5156,1877.9375 294.375,1878 294.2344,1878.125 C293.9063,1878.4688 293.9063,1878.4688 293.7813,1878.5313 C293.4844,1878.7188 293,1878.8125 292.4531,1878.8125 C291.0156,1878.8125 290.0938,1878.0313 290.0938,1876.8281 L290.0938,1876.0625 C290.0938,1874.7969 290.9844,1873.875 292.2031,1873.875 C292.6094,1873.875 293.0469,1873.9844 293.375,1874.1719 C293.7188,1874.3594 293.8438,1874.5156 293.9063,1874.7969 C293.9531,1875.0938 293.9688,1875.1719 294.0625,1875.2656 C294.1563,1875.375 294.3281,1875.4375 294.4844,1875.4375 C294.6875,1875.4375 294.8594,1875.3438 294.9844,1875.1875 C295.0625,1875.0781 295.0938,1874.9531 295.0938,1874.6406 L295.0938,1873.6406 C295.0938,1873.3438 295.0781,1873.25 295,1873.1406 C294.8906,1872.9531 294.7031,1872.8438 294.4844,1872.8438 C294.2813,1872.8438 294.1406,1872.9219 293.9844,1873.1406 L293.8594,1873.0938 Z "/><text fill="#444444" font-family="sans-serif" font-size="12" font-style="italic" lengthAdjust="spacingAndGlyphs" textLength="130" x="312" y="1881.4824">«AppCompatActivity»</text><text fill="#444444" font-family="sans-serif" font-size="12" lengthAdjust="spacingAndGlyphs" textLength="70" x="342" y="1895.4512">MainActivity</text><rect fill="#66BCF0" height="49.9375" rx="2" ry="2" style="stroke: #444444; stroke-width: 3.0;" width="224" x="497" y="1859.3438"/><ellipse cx="514" cy="1876.3438" fill="#ADD1B2" rx="10" ry="10" style="stroke: #444444; stroke-width: 1.0;"/><path d="M515.8594,1873.0938 C515.2031,1872.7813 514.7813,1872.6875 514.1563,1872.6875 C512.3125,1872.6875 510.8906,1874.1406 510.8906,1876.0625 L510.8906,1876.8594 C510.8906,1878.6875 512.3906,1880.0156 514.4219,1880.0156 C515.2813,1880.0156 516.1094,1879.7969 516.625,1879.4063 C517.0469,1879.125 517.2656,1878.8125 517.2656,1878.5313 C517.2656,1878.2188 516.9844,1877.9375 516.6719,1877.9375 C516.5156,1877.9375 516.375,1878 516.2344,1878.125 C515.9063,1878.4688 515.9063,1878.4688 515.7813,1878.5313 C515.4844,1878.7188 515,1878.8125 514.4531,1878.8125 C513.0156,1878.8125 512.0938,1878.0313 512.0938,1876.8281 L512.0938,1876.0625 C512.0938,1874.7969 512.9844,1873.875 514.2031,1873.875 C514.6094,1873.875 515.0469,1873.9844 515.375,1874.1719 C515.7188,1874.3594 515.8438,1874.5156 515.9063,1874.7969 C515.9531,1875.0938 515.9688,1875.1719 516.0625,1875.2656 C516.1563,1875.375 516.3281,1875.4375 516.4844,1875.4375 C516.6875,1875.4375 516.8594,1875.3438 516.9844,1875.1875 C517.0625,1875.0781 517.0938,1874.9531 517.0938,1874.6406 L517.0938,1873.6406 C517.0938,1873.3438 517.0781,1873.25 517,1873.1406 C516.8906,1872.9531 516.7031,1872.8438 516.4844,1872.8438 C516.2813,1872.8438 516.1406,1872.9219 515.9844,1873.1406 L515.8594,1873.0938 Z "/><text fill="#444444" font-family="sans-serif" font-size="12" font-style="italic" lengthAdjust="spacingAndGlyphs" textLength="61" x="591.5" y="1881.4824">«Handler»</text><text fill="#444444" font-family="sans-serif" font-size="12" lengthAdjust="spacingAndGlyphs" textLength="176" x="534" y="1895.4512">Handler pre pracovné vlákno</text><rect fill="#66BCF0" height="49.9375" rx="2" ry="2" style="stroke: #444444; stroke-width: 3.0;" width="154" x="769" y="1859.3438"/><ellipse cx="786" cy="1876.3438" fill="#ADD1B2" rx="10" ry="10" style="stroke: #444444; stroke-width: 1.0;"/><path d="M787.8594,1873.0938 C787.2031,1872.7813 786.7813,1872.6875 786.1563,1872.6875 C784.3125,1872.6875 782.8906,1874.1406 782.8906,1876.0625 L782.8906,1876.8594 C782.8906,1878.6875 784.3906,1880.0156 786.4219,1880.0156 C787.2813,1880.0156 788.1094,1879.7969 788.625,1879.4063 C789.0469,1879.125 789.2656,1878.8125 789.2656,1878.5313 C789.2656,1878.2188 788.9844,1877.9375 788.6719,1877.9375 C788.5156,1877.9375 788.375,1878 788.2344,1878.125 C787.9063,1878.4688 787.9063,1878.4688 787.7813,1878.5313 C787.4844,1878.7188 787,1878.8125 786.4531,1878.8125 C785.0156,1878.8125 784.0938,1878.0313 784.0938,1876.8281 L784.0938,1876.0625 C784.0938,1874.7969 784.9844,1873.875 786.2031,1873.875 C786.6094,1873.875 787.0469,1873.9844 787.375,1874.1719 C787.7188,1874.3594 787.8438,1874.5156 787.9063,1874.7969 C787.9531,1875.0938 787.9688,1875.1719 788.0625,1875.2656 C788.1563,1875.375 788.3281,1875.4375 788.4844,1875.4375 C788.6875,1875.4375 788.8594,1875.3438 788.9844,1875.1875 C789.0625,1875.0781 789.0938,1874.9531 789.0938,1874.6406 L789.0938,1873.6406 C789.0938,1873.3438 789.0781,1873.25 789,1873.1406 C788.8906,1872.9531 788.7031,1872.8438 788.4844,1872.8438 C788.2813,1872.8438 788.1406,1872.9219 787.9844,1873.1406 L787.8594,1873.0938 Z "/><text fill="#444444" font-family="sans-serif" font-size="12" font-style="italic" lengthAdjust="spacingAndGlyphs" textLength="103" x="807.5" y="1881.4824">«HandlerThread»</text><text fill="#444444" font-family="sans-serif" font-size="12" lengthAdjust="spacingAndGlyphs" textLength="106" x="806" y="1895.4512">MyHandlerThread</text><rect fill="#66BCF0" height="1671.5313" style="stroke: #444444; stroke-width: 1.0;" width="10" x="106" y="179.8125"/><rect fill="#66BCF0" height="180.8438" style="stroke: #444444; stroke-width: 1.0;" width="10" x="359" y="962.0313"/><rect fill="#66BCF0" height="166.875" style="stroke: #444444; stroke-width: 1.0;" width="10" x="359" y="1261.7813"/><rect fill="#66BCF0" height="126.9063" style="stroke: #444444; stroke-width: 1.0;" width="10" x="359" y="1547.5625"/><rect fill="#66BCF0" height="41.9688" style="stroke: #444444; stroke-width: 1.0;" width="10" x="359" y="1793.375"/><rect fill="#66BCF0" height="1513.6875" style="stroke: #444444; stroke-width: 1.0;" width="10" x="604" y="337.6563"/><rect fill="#66BCF0" height="242.75" style="stroke: #444444; stroke-width: 1.0;" width="10" x="841" y="643.3438"/><rect fill="#66BCF0" height="187.8438" style="stroke: #444444; stroke-width: 1.0;" width="10" x="841" y="998"/><rect fill="#66BCF0" height="173.875" style="stroke: #444444; stroke-width: 1.0;" width="10" x="841" y="1297.75"/><rect fill="#66BCF0" height="133.9063" style="stroke: #444444; stroke-width: 1.0;" width="10" x="841" y="1583.5313"/><polygon fill="#444444" points="225,114.875,215,118.875,225,122.875,221,118.875" style="stroke: #444444; stroke-width: 1.0;"/><line style="stroke: #444444; stroke-width: 3.0;" x1="219" x2="363" y1="118.875" y2="118.875"/><text fill="#444444" font-family="sans-serif" font-size="12" font-weight="bold" lengthAdjust="spacingAndGlyphs" textLength="101" x="235" y="110.0449">new Handler()</text><rect fill="#66BCF0" height="49.9375" rx="2" ry="2" style="stroke: #444444; stroke-width: 3.0;" width="206" x="8" y="90.9063"/><ellipse cx="25" cy="107.9063" fill="#ADD1B2" rx="10" ry="10" style="stroke: #444444; stroke-width: 1.0;"/><path d="M26.8594,104.6563 C26.2031,104.3438 25.7813,104.25 25.1563,104.25 C23.3125,104.25 21.8906,105.7031 21.8906,107.625 L21.8906,108.4219 C21.8906,110.25 23.3906,111.5781 25.4219,111.5781 C26.2813,111.5781 27.1094,111.3594 27.625,110.9688 C28.0469,110.6875 28.2656,110.375 28.2656,110.0938 C28.2656,109.7813 27.9844,109.5 27.6719,109.5 C27.5156,109.5 27.375,109.5625 27.2344,109.6875 C26.9063,110.0313 26.9063,110.0313 26.7813,110.0938 C26.4844,110.2813 26,110.375 25.4531,110.375 C24.0156,110.375 23.0938,109.5938 23.0938,108.3906 L23.0938,107.625 C23.0938,106.3594 23.9844,105.4375 25.2031,105.4375 C25.6094,105.4375 26.0469,105.5469 26.375,105.7344 C26.7188,105.9219 26.8438,106.0781 26.9063,106.3594 C26.9531,106.6563 26.9688,106.7344 27.0625,106.8281 C27.1563,106.9375 27.3281,107 27.4844,107 C27.6875,107 27.8594,106.9063 27.9844,106.75 C28.0625,106.6406 28.0938,106.5156 28.0938,106.2031 L28.0938,105.2031 C28.0938,104.9063 28.0781,104.8125 28,104.7031 C27.8906,104.5156 27.7031,104.4063 27.4844,104.4063 C27.2813,104.4063 27.1406,104.4844 26.9844,104.7031 L26.8594,104.6563 Z "/><text fill="#444444" font-family="sans-serif" font-size="12" font-style="italic" lengthAdjust="spacingAndGlyphs" textLength="61" x="93.5" y="113.0449">«Handler»</text><text fill="#444444" font-family="sans-serif" font-size="12" lengthAdjust="spacingAndGlyphs" textLength="158" x="45" y="127.0137">Handler pre hlavné vlákno</text><polygon fill="#444444" points="127,175.8125,117,179.8125,127,183.8125,123,179.8125" style="stroke: #444444; stroke-width: 1.0;"/><polygon fill="#444444" points="352,175.8125,362,179.8125,352,183.8125,356,179.8125" style="stroke: #444444; stroke-width: 1.0;"/><line style="stroke: #444444; stroke-width: 3.0; stroke-dasharray: 2.0,2.0;" x1="121" x2="358" y1="179.8125" y2="179.8125"/><text fill="#444444" font-family="sans-serif" font-size="12" font-weight="bold" lengthAdjust="spacingAndGlyphs" textLength="47" x="137" y="170.9824">looper</text><polygon fill="#444444" points="757,211.7813,767,215.7813,757,219.7813,761,215.7813" style="stroke: #444444; stroke-width: 1.0;"/><line style="stroke: #444444; stroke-width: 3.0;" x1="364" x2="763" y1="215.7813" y2="215.7813"/><text fill="#444444" font-family="sans-serif" font-size="12" font-weight="bold" lengthAdjust="spacingAndGlyphs" textLength="29" x="375" y="206.9512">new</text><rect fill="#66BCF0" height="49.9375" rx="2" ry="2" style="stroke: #444444; stroke-width: 3.0;" width="154" x="769" y="187.8125"/><ellipse cx="786" cy="204.8125" fill="#ADD1B2" rx="10" ry="10" style="stroke: #444444; stroke-width: 1.0;"/><path d="M787.8594,201.5625 C787.2031,201.25 786.7813,201.1563 786.1563,201.1563 C784.3125,201.1563 782.8906,202.6094 782.8906,204.5313 L782.8906,205.3281 C782.8906,207.1563 784.3906,208.4844 786.4219,208.4844 C787.2813,208.4844 788.1094,208.2656 788.625,207.875 C789.0469,207.5938 789.2656,207.2813 789.2656,207 C789.2656,206.6875 788.9844,206.4063 788.6719,206.4063 C788.5156,206.4063 788.375,206.4688 788.2344,206.5938 C787.9063,206.9375 787.9063,206.9375 787.7813,207 C787.4844,207.1875 787,207.2813 786.4531,207.2813 C785.0156,207.2813 784.0938,206.5 784.0938,205.2969 L784.0938,204.5313 C784.0938,203.2656 784.9844,202.3438 786.2031,202.3438 C786.6094,202.3438 787.0469,202.4531 787.375,202.6406 C787.7188,202.8281 787.8438,202.9844 787.9063,203.2656 C787.9531,203.5625 787.9688,203.6406 788.0625,203.7344 C788.1563,203.8438 788.3281,203.9063 788.4844,203.9063 C788.6875,203.9063 788.8594,203.8125 788.9844,203.6563 C789.0625,203.5469 789.0938,203.4219 789.0938,203.1094 L789.0938,202.1094 C789.0938,201.8125 789.0781,201.7188 789,201.6094 C788.8906,201.4219 788.7031,201.3125 788.4844,201.3125 C788.2813,201.3125 788.1406,201.3906 787.9844,201.6094 L787.8594,201.5625 Z "/><text fill="#444444" font-family="sans-serif" font-size="12" font-style="italic" lengthAdjust="spacingAndGlyphs" textLength="103" x="807.5" y="209.9512">«HandlerThread»</text><text fill="#444444" font-family="sans-serif" font-size="12" lengthAdjust="spacingAndGlyphs" textLength="106" x="806" y="223.9199">MyHandlerThread</text><polygon fill="#444444" points="485,272.7188,495,276.7188,485,280.7188,489,276.7188" style="stroke: #444444; stroke-width: 1.0;"/><line style="stroke: #444444; stroke-width: 3.0;" x1="364" x2="491" y1="276.7188" y2="276.7188"/><text fill="#444444" font-family="sans-serif" font-size="12" font-weight="bold" lengthAdjust="spacingAndGlyphs" textLength="101" x="375" y="267.8887">new Handler()</text><rect fill="#66BCF0" height="49.9375" rx="2" ry="2" style="stroke: #444444; stroke-width: 3.0;" width="224" x="497" y="248.75"/><ellipse cx="514" cy="265.75" fill="#ADD1B2" rx="10" ry="10" style="stroke: #444444; stroke-width: 1.0;"/><path d="M515.8594,262.5 C515.2031,262.1875 514.7813,262.0938 514.1563,262.0938 C512.3125,262.0938 510.8906,263.5469 510.8906,265.4688 L510.8906,266.2656 C510.8906,268.0938 512.3906,269.4219 514.4219,269.4219 C515.2813,269.4219 516.1094,269.2031 516.625,268.8125 C517.0469,268.5313 517.2656,268.2188 517.2656,267.9375 C517.2656,267.625 516.9844,267.3438 516.6719,267.3438 C516.5156,267.3438 516.375,267.4063 516.2344,267.5313 C515.9063,267.875 515.9063,267.875 515.7813,267.9375 C515.4844,268.125 515,268.2188 514.4531,268.2188 C513.0156,268.2188 512.0938,267.4375 512.0938,266.2344 L512.0938,265.4688 C512.0938,264.2031 512.9844,263.2813 514.2031,263.2813 C514.6094,263.2813 515.0469,263.3906 515.375,263.5781 C515.7188,263.7656 515.8438,263.9219 515.9063,264.2031 C515.9531,264.5 515.9688,264.5781 516.0625,264.6719 C516.1563,264.7813 516.3281,264.8438 516.4844,264.8438 C516.6875,264.8438 516.8594,264.75 516.9844,264.5938 C517.0625,264.4844 517.0938,264.3594 517.0938,264.0469 L517.0938,263.0469 C517.0938,262.75 517.0781,262.6563 517,262.5469 C516.8906,262.3594 516.7031,262.25 516.4844,262.25 C516.2813,262.25 516.1406,262.3281 515.9844,262.5469 L515.8594,262.5 Z "/><text fill="#444444" font-family="sans-serif" font-size="12" font-style="italic" lengthAdjust="spacingAndGlyphs" textLength="61" x="591.5" y="270.8887">«Handler»</text><text fill="#444444" font-family="sans-serif" font-size="12" lengthAdjust="spacingAndGlyphs" textLength="176" x="534" y="284.8574">Handler pre pracovné vlákno</text><polygon fill="#444444" points="625,333.6563,615,337.6563,625,341.6563,621,337.6563" style="stroke: #444444; stroke-width: 1.0;"/><line style="stroke: #444444; stroke-width: 3.0;" x1="619" x2="845" y1="337.6563" y2="337.6563"/><text fill="#444444" font-family="sans-serif" font-size="12" font-weight="bold" lengthAdjust="spacingAndGlyphs" textLength="87" x="635" y="328.8262">getLooper()</text><polygon fill="#444444" points="592,369.625,602,373.625,592,377.625,596,373.625" style="stroke: #444444; stroke-width: 1.0;"/><line style="stroke: #444444; stroke-width: 3.0;" x1="364" x2="598" y1="373.625" y2="373.625"/><text fill="#444444" font-family="sans-serif" font-size="12" font-weight="bold" lengthAdjust="spacingAndGlyphs" textLength="131" x="375" y="364.7949">post("ImageUrl 1")</text><polygon fill="#FBFB77" points="570,386.625,647,386.625,657,400.625,647,415.625,570,415.625,560,400.625,570,386.625" style="stroke: #A80036; stroke-width: 1.0;"/><text fill="#444444" font-family="sans-serif" font-size="12" lengthAdjust="spacingAndGlyphs" textLength="65" x="576" y="405.7637">ImageUrl 1</text><polygon fill="#444444" points="592,445.5625,602,449.5625,592,453.5625,596,449.5625" style="stroke: #444444; stroke-width: 1.0;"/><line style="stroke: #444444; stroke-width: 3.0;" x1="364" x2="598" y1="449.5625" y2="449.5625"/><text fill="#444444" font-family="sans-serif" font-size="12" font-weight="bold" lengthAdjust="spacingAndGlyphs" textLength="131" x="375" y="440.7324">post("ImageUrl 2")</text><polygon fill="#FBFB77" points="570,462.5625,648,462.5625,658,483.5625,648,505.5625,570,505.5625,560,483.5625,570,462.5625" style="stroke: #A80036; stroke-width: 1.0;"/><text fill="#444444" font-family="sans-serif" font-size="12" lengthAdjust="spacingAndGlyphs" textLength="65" x="576" y="481.7012">ImageUrl 1</text><text fill="#444444" font-family="sans-serif" font-size="12" lengthAdjust="spacingAndGlyphs" textLength="66" x="576" y="495.6699">ImageUrl 2</text><polygon fill="#444444" points="592,535.4688,602,539.4688,592,543.4688,596,539.4688" style="stroke: #444444; stroke-width: 1.0;"/><line style="stroke: #444444; stroke-width: 3.0;" x1="364" x2="598" y1="539.4688" y2="539.4688"/><text fill="#444444" font-family="sans-serif" font-size="12" font-weight="bold" lengthAdjust="spacingAndGlyphs" textLength="131" x="375" y="530.6387">post("ImageUrl 3")</text><polygon fill="#FBFB77" points="570,552.4688,648,552.4688,658,580.4688,648,609.4688,570,609.4688,560,580.4688,570,552.4688" style="stroke: #A80036; stroke-width: 1.0;"/><text fill="#444444" font-family="sans-serif" font-size="12" lengthAdjust="spacingAndGlyphs" textLength="65" x="576" y="571.6074">ImageUrl 1</text><text fill="#444444" font-family="sans-serif" font-size="12" lengthAdjust="spacingAndGlyphs" textLength="66" x="576" y="585.5762">ImageUrl 2</text><text fill="#444444" font-family="sans-serif" font-size="12" lengthAdjust="spacingAndGlyphs" textLength="66" x="576" y="599.5449">ImageUrl 3</text><polygon fill="#444444" points="829,639.3438,839,643.3438,829,647.3438,833,643.3438" style="stroke: #444444; stroke-width: 1.0;"/><line style="stroke: #444444; stroke-width: 3.0;" x1="614" x2="835" y1="643.3438" y2="643.3438"/><text fill="#444444" font-family="sans-serif" font-size="12" font-weight="bold" lengthAdjust="spacingAndGlyphs" textLength="199" x="625" y="634.5137">handleMessage(ImageUrl 1)</text><polygon fill="#FBFB77" points="570,656.3438,648,656.3438,658,677.3438,648,699.3438,570,699.3438,560,677.3438,570,656.3438" style="stroke: #A80036; stroke-width: 1.0;"/><text fill="#444444" font-family="sans-serif" font-size="12" lengthAdjust="spacingAndGlyphs" textLength="66" x="576" y="675.4824">ImageUrl 2</text><text fill="#444444" font-family="sans-serif" font-size="12" lengthAdjust="spacingAndGlyphs" textLength="66" x="576" y="689.4512">ImageUrl 3</text><line style="stroke: #444444; stroke-width: 3.0;" x1="851" x2="893" y1="733.25" y2="733.25"/><line style="stroke: #444444; stroke-width: 3.0;" x1="893" x2="893" y1="733.25" y2="746.25"/><line style="stroke: #444444; stroke-width: 3.0;" x1="852" x2="893" y1="746.25" y2="746.25"/><polygon fill="#444444" points="862,742.25,852,746.25,862,750.25,858,746.25" style="stroke: #444444; stroke-width: 1.0;"/><text fill="#444444" font-family="sans-serif" font-size="12" font-weight="bold" lengthAdjust="spacingAndGlyphs" textLength="149" x="862" y="724.4199">Download ImageUrl 1</text><polygon fill="#444444" points="592,778.2188,602,782.2188,592,786.2188,596,782.2188" style="stroke: #444444; stroke-width: 1.0;"/><line style="stroke: #444444; stroke-width: 3.0;" x1="364" x2="598" y1="782.2188" y2="782.2188"/><text fill="#444444" font-family="sans-serif" font-size="12" font-weight="bold" lengthAdjust="spacingAndGlyphs" textLength="132" x="375" y="773.3887">post("ImageUrl 4")</text><polygon fill="#FBFB77" points="570,795.2188,648,795.2188,658,823.2188,648,852.2188,570,852.2188,560,823.2188,570,795.2188" style="stroke: #A80036; stroke-width: 1.0;"/><text fill="#444444" font-family="sans-serif" font-size="12" lengthAdjust="spacingAndGlyphs" textLength="66" x="576" y="814.3574">ImageUrl 2</text><text fill="#444444" font-family="sans-serif" font-size="12" lengthAdjust="spacingAndGlyphs" textLength="66" x="576" y="828.3262">ImageUrl 3</text><text fill="#444444" font-family="sans-serif" font-size="12" lengthAdjust="spacingAndGlyphs" textLength="66" x="576" y="842.2949">ImageUrl 4</text><polygon fill="#444444" points="127,882.0938,117,886.0938,127,890.0938,123,886.0938" style="stroke: #444444; stroke-width: 1.0;"/><line style="stroke: #444444; stroke-width: 3.0;" x1="121" x2="845" y1="886.0938" y2="886.0938"/><text fill="#444444" font-family="sans-serif" font-size="12" font-weight="bold" lengthAdjust="spacingAndGlyphs" textLength="111" x="137" y="877.2637">post(Runnable)</text><polygon fill="#FBFB77" points="81,899.0938,141,899.0938,151,913.0938,141,928.0938,81,928.0938,71,913.0938,81,899.0938" style="stroke: #A80036; stroke-width: 1.0;"/><text fill="#444444" font-family="sans-serif" font-size="12" lengthAdjust="spacingAndGlyphs" textLength="48" x="87" y="918.2324">Image 1</text><polygon fill="#444444" points="347,958.0313,357,962.0313,347,966.0313,351,962.0313" style="stroke: #444444; stroke-width: 1.0;"/><line style="stroke: #444444; stroke-width: 3.0;" x1="116" x2="353" y1="962.0313" y2="962.0313"/><text fill="#444444" font-family="sans-serif" font-size="12" font-weight="bold" lengthAdjust="spacingAndGlyphs" textLength="215" x="127" y="953.2012">onImageDownloaded(Image 1)</text><polygon fill="#444444" points="829,994,839,998,829,1002,833,998" style="stroke: #444444; stroke-width: 1.0;"/><line style="stroke: #444444; stroke-width: 3.0;" x1="614" x2="835" y1="998" y2="998"/><text fill="#444444" font-family="sans-serif" font-size="12" font-weight="bold" lengthAdjust="spacingAndGlyphs" textLength="199" x="625" y="989.1699">handleMessage(ImageUrl 2)</text><polygon fill="#FBFB77" points="570,1011,648,1011,658,1032,648,1054,570,1054,560,1032,570,1011" style="stroke: #A80036; stroke-width: 1.0;"/><text fill="#444444" font-family="sans-serif" font-size="12" lengthAdjust="spacingAndGlyphs" textLength="66" x="576" y="1030.1387">ImageUrl 3</text><text fill="#444444" font-family="sans-serif" font-size="12" lengthAdjust="spacingAndGlyphs" textLength="66" x="576" y="1044.1074">ImageUrl 4</text><line style="stroke: #444444; stroke-width: 3.0;" x1="851" x2="893" y1="1087.9063" y2="1087.9063"/><line style="stroke: #444444; stroke-width: 3.0;" x1="893" x2="893" y1="1087.9063" y2="1100.9063"/><line style="stroke: #444444; stroke-width: 3.0;" x1="852" x2="893" y1="1100.9063" y2="1100.9063"/><polygon fill="#444444" points="862,1096.9063,852,1100.9063,862,1104.9063,858,1100.9063" style="stroke: #444444; stroke-width: 1.0;"/><text fill="#444444" font-family="sans-serif" font-size="12" font-weight="bold" lengthAdjust="spacingAndGlyphs" textLength="149" x="862" y="1079.0762">Download ImageUrl 2</text><line style="stroke: #444444; stroke-width: 3.0;" x1="369" x2="411" y1="1141.875" y2="1141.875"/><line style="stroke: #444444; stroke-width: 3.0;" x1="411" x2="411" y1="1141.875" y2="1154.875"/><line style="stroke: #444444; stroke-width: 3.0;" x1="364" x2="411" y1="1154.875" y2="1154.875"/><polygon fill="#444444" points="374,1150.875,364,1154.875,374,1158.875,370,1154.875" style="stroke: #444444; stroke-width: 1.0;"/><text fill="#444444" font-family="sans-serif" font-size="12" font-weight="bold" lengthAdjust="spacingAndGlyphs" textLength="81" x="380" y="1133.0449">ShowImage</text><polygon fill="#444444" points="127,1181.8438,117,1185.8438,127,1189.8438,123,1185.8438" style="stroke: #444444; stroke-width: 1.0;"/><line style="stroke: #444444; stroke-width: 3.0;" x1="121" x2="845" y1="1185.8438" y2="1185.8438"/><text fill="#444444" font-family="sans-serif" font-size="12" font-weight="bold" lengthAdjust="spacingAndGlyphs" textLength="111" x="137" y="1177.0137">post(Runnable)</text><polygon fill="#FBFB77" points="80,1198.8438,141,1198.8438,151,1212.8438,141,1227.8438,80,1227.8438,70,1212.8438,80,1198.8438" style="stroke: #A80036; stroke-width: 1.0;"/><text fill="#444444" font-family="sans-serif" font-size="12" lengthAdjust="spacingAndGlyphs" textLength="49" x="86" y="1217.9824">Image 2</text><polygon fill="#444444" points="347,1257.7813,357,1261.7813,347,1265.7813,351,1261.7813" style="stroke: #444444; stroke-width: 1.0;"/><line style="stroke: #444444; stroke-width: 3.0;" x1="116" x2="353" y1="1261.7813" y2="1261.7813"/><text fill="#444444" font-family="sans-serif" font-size="12" font-weight="bold" lengthAdjust="spacingAndGlyphs" textLength="215" x="127" y="1252.9512">onImageDownloaded(Image 2)</text><polygon fill="#444444" points="829,1293.75,839,1297.75,829,1301.75,833,1297.75" style="stroke: #444444; stroke-width: 1.0;"/><line style="stroke: #444444; stroke-width: 3.0;" x1="614" x2="835" y1="1297.75" y2="1297.75"/><text fill="#444444" font-family="sans-serif" font-size="12" font-weight="bold" lengthAdjust="spacingAndGlyphs" textLength="199" x="625" y="1288.9199">handleMessage(ImageUrl 3)</text><polygon fill="#FBFB77" points="570,1310.75,648,1310.75,658,1324.75,648,1339.75,570,1339.75,560,1324.75,570,1310.75" style="stroke: #A80036; stroke-width: 1.0;"/><text fill="#444444" font-family="sans-serif" font-size="12" lengthAdjust="spacingAndGlyphs" textLength="66" x="576" y="1329.8887">ImageUrl 4</text><line style="stroke: #444444; stroke-width: 3.0;" x1="851" x2="893" y1="1373.6875" y2="1373.6875"/><line style="stroke: #444444; stroke-width: 3.0;" x1="893" x2="893" y1="1373.6875" y2="1386.6875"/><line style="stroke: #444444; stroke-width: 3.0;" x1="852" x2="893" y1="1386.6875" y2="1386.6875"/><polygon fill="#444444" points="862,1382.6875,852,1386.6875,862,1390.6875,858,1386.6875" style="stroke: #444444; stroke-width: 1.0;"/><text fill="#444444" font-family="sans-serif" font-size="12" font-weight="bold" lengthAdjust="spacingAndGlyphs" textLength="149" x="862" y="1364.8574">Download ImageUrl 3</text><line style="stroke: #444444; stroke-width: 3.0;" x1="369" x2="411" y1="1427.6563" y2="1427.6563"/><line style="stroke: #444444; stroke-width: 3.0;" x1="411" x2="411" y1="1427.6563" y2="1440.6563"/><line style="stroke: #444444; stroke-width: 3.0;" x1="364" x2="411" y1="1440.6563" y2="1440.6563"/><polygon fill="#444444" points="374,1436.6563,364,1440.6563,374,1444.6563,370,1440.6563" style="stroke: #444444; stroke-width: 1.0;"/><text fill="#444444" font-family="sans-serif" font-size="12" font-weight="bold" lengthAdjust="spacingAndGlyphs" textLength="81" x="380" y="1418.8262">ShowImage</text><polygon fill="#444444" points="127,1467.625,117,1471.625,127,1475.625,123,1471.625" style="stroke: #444444; stroke-width: 1.0;"/><line style="stroke: #444444; stroke-width: 3.0;" x1="121" x2="845" y1="1471.625" y2="1471.625"/><text fill="#444444" font-family="sans-serif" font-size="12" font-weight="bold" lengthAdjust="spacingAndGlyphs" textLength="111" x="137" y="1462.7949">post(Runnable)</text><polygon fill="#FBFB77" points="80,1484.625,141,1484.625,151,1498.625,141,1513.625,80,1513.625,70,1498.625,80,1484.625" style="stroke: #A80036; stroke-width: 1.0;"/><text fill="#444444" font-family="sans-serif" font-size="12" lengthAdjust="spacingAndGlyphs" textLength="49" x="86" y="1503.7637">Image 3</text><polygon fill="#444444" points="347,1543.5625,357,1547.5625,347,1551.5625,351,1547.5625" style="stroke: #444444; stroke-width: 1.0;"/><line style="stroke: #444444; stroke-width: 3.0;" x1="116" x2="353" y1="1547.5625" y2="1547.5625"/><text fill="#444444" font-family="sans-serif" font-size="12" font-weight="bold" lengthAdjust="spacingAndGlyphs" textLength="215" x="127" y="1538.7324">onImageDownloaded(Image 3)</text><polygon fill="#444444" points="829,1579.5313,839,1583.5313,829,1587.5313,833,1583.5313" style="stroke: #444444; stroke-width: 1.0;"/><line style="stroke: #444444; stroke-width: 3.0;" x1="614" x2="835" y1="1583.5313" y2="1583.5313"/><text fill="#444444" font-family="sans-serif" font-size="12" font-weight="bold" lengthAdjust="spacingAndGlyphs" textLength="200" x="625" y="1574.7012">handleMessage(ImageUrl 4)</text><line style="stroke: #444444; stroke-width: 3.0;" x1="851" x2="893" y1="1619.5" y2="1619.5"/><line style="stroke: #444444; stroke-width: 3.0;" x1="893" x2="893" y1="1619.5" y2="1632.5"/><line style="stroke: #444444; stroke-width: 3.0;" x1="852" x2="893" y1="1632.5" y2="1632.5"/><polygon fill="#444444" points="862,1628.5,852,1632.5,862,1636.5,858,1632.5" style="stroke: #444444; stroke-width: 1.0;"/><text fill="#444444" font-family="sans-serif" font-size="12" font-weight="bold" lengthAdjust="spacingAndGlyphs" textLength="150" x="862" y="1610.6699">Download ImageUrl 4</text><line style="stroke: #444444; stroke-width: 3.0;" x1="369" x2="411" y1="1673.4688" y2="1673.4688"/><line style="stroke: #444444; stroke-width: 3.0;" x1="411" x2="411" y1="1673.4688" y2="1686.4688"/><line style="stroke: #444444; stroke-width: 3.0;" x1="364" x2="411" y1="1686.4688" y2="1686.4688"/><polygon fill="#444444" points="374,1682.4688,364,1686.4688,374,1690.4688,370,1686.4688" style="stroke: #444444; stroke-width: 1.0;"/><text fill="#444444" font-family="sans-serif" font-size="12" font-weight="bold" lengthAdjust="spacingAndGlyphs" textLength="81" x="380" y="1664.6387">ShowImage</text><polygon fill="#444444" points="127,1713.4375,117,1717.4375,127,1721.4375,123,1717.4375" style="stroke: #444444; stroke-width: 1.0;"/><line style="stroke: #444444; stroke-width: 3.0;" x1="121" x2="845" y1="1717.4375" y2="1717.4375"/><text fill="#444444" font-family="sans-serif" font-size="12" font-weight="bold" lengthAdjust="spacingAndGlyphs" textLength="111" x="137" y="1708.6074">post(Runnable)</text><polygon fill="#FBFB77" points="80,1730.4375,141,1730.4375,151,1744.4375,141,1759.4375,80,1759.4375,70,1744.4375,80,1730.4375" style="stroke: #A80036; stroke-width: 1.0;"/><text fill="#444444" font-family="sans-serif" font-size="12" lengthAdjust="spacingAndGlyphs" textLength="49" x="86" y="1749.5762">Image 4</text><polygon fill="#444444" points="347,1789.375,357,1793.375,347,1797.375,351,1793.375" style="stroke: #444444; stroke-width: 1.0;"/><line style="stroke: #444444; stroke-width: 3.0;" x1="116" x2="353" y1="1793.375" y2="1793.375"/><text fill="#444444" font-family="sans-serif" font-size="12" font-weight="bold" lengthAdjust="spacingAndGlyphs" textLength="216" x="127" y="1784.5449">onImageDownloaded(Image 4)</text><line style="stroke: #444444; stroke-width: 3.0;" x1="369" x2="411" y1="1834.3438" y2="1834.3438"/><line style="stroke: #444444; stroke-width: 3.0;" x1="411" x2="411" y1="1834.3438" y2="1847.3438"/><line style="stroke: #444444; stroke-width: 3.0;" x1="364" x2="411" y1="1847.3438" y2="1847.3438"/><polygon fill="#444444" points="374,1843.3438,364,1847.3438,374,1851.3438,370,1847.3438" style="stroke: #444444; stroke-width: 1.0;"/><text fill="#444444" font-family="sans-serif" font-size="12" font-weight="bold" lengthAdjust="spacingAndGlyphs" textLength="81" x="380" y="1825.5137">ShowImage</text><!--MD5=[38144e7550f0179180ff298b90af9a06]
@startuml
!define BG_MAIN_COLOR      #66BCF0
!define BG_SECONDARY_COLOR #B4BCBE
!define BG_PACKAGE_COLOR   #eeb291
!define BORDER_COLOR       #444444
!define FONT_COLOR         #444444


' include the general skinparams for both, light and dark
' to overwrite with the given settings
!define BORDER_THICKNESS 3

skinparam Padding 4
skinparam RoundCorner 4
skinparam Shadowing false

skinparam Default {
  'FontName "Open Sans Semibold"
  FontColor FONT_COLOR
  FontSize 12
}

skinparam Arrow {
  Color FONT_COLOR
  FontColor FONT_COLOR
  FontStyle Bold
}

skinparam activityDiamond {
  BackgroundColor BG_MAIN_COLOR
  BorderColor BORDER_COLOR
  FontColor FONT_COLOR
}

skinparam activity {
  BackgroundColor BG_MAIN_COLOR
  BorderColor BORDER_COLOR
  FontColor FONT_COLOR
}

skinparam package {
  FontColor FONT_COLOR
  BackgroundColor BG_MAIN_COLOR
  BorderColor BORDER_COLOR
}
skinparam node {
  FontColor FONT_COLOR
  BackgroundColor BG_PACKAGE_COLOR
  BorderColor BORDER_COLOR
}
skinparam component {
  BackgroundColor BG_MAIN_COLOR
  BorderColor BORDER_COLOR
  FontColor FONT_COLOR
  Style uml2
}

skinparam database {
  BackgroundColor BG_MAIN_COLOR
  BorderColor BORDER_COLOR
  FontColor FONT_COLOR
}

skinparam cloud {
  BackgroundColor BG_MAIN_COLOR
  BorderColor BORDER_COLOR
  FontColor FONT_COLOR
}

skinparam collections {
  BackgroundColor BG_MAIN_COLOR
  BorderColor BORDER_COLOR
  FontColor FONT_COLOR
}
skinparam Control {
  BackgroundColor BG_MAIN_COLOR
  BorderColor BORDER_COLOR
  FontColor FONT_COLOR
}
skinparam Boundary {
  BackgroundColor BG_MAIN_COLOR
  BorderColor BORDER_COLOR
  FontColor FONT_COLOR
}
skinparam Entity {
  BackgroundColor BG_MAIN_COLOR
  BorderColor BORDER_COLOR
  FontColor FONT_COLOR
}
skinparam interface {
  BackgroundColor BG_MAIN_COLOR
  BorderColor BORDER_COLOR
  FontColor FONT_COLOR
}
skinparam SequenceParticipantBorderThickness 3
skinparam sequence {
  ParticipantBackgroundColor BG_MAIN_COLOR
  ParticipantBorderColor BORDER_COLOR
  ParticipantFontStyle normal
  ParticipantFontColor FONT_COLOR
  LifeLineBorderColor BORDER_COLOR
  LifeLineBackgroundColor BG_MAIN_COLOR
  ArrowColor FONT_COLOR
  ArrowBorderColor BORDER_COLOR
  ArrowFontColor FONT_COLOR
  ArrowThickness 3
  ActorBackgroundColor BG_MAIN_COLOR
  ActorBorderColor BORDER_COLOR
  ActorFontColor FONT_COLOR
}

' C4 Styling
' ##################################

skinparam rectangle<<person>> {
  StereotypeFontColor FONT_COLOR
  FontColor FONT_COLOR
  BackgroundColor BG_MAIN_COLOR
  BorderColor BORDER_COLOR
  BorderThickness BORDER_THICKNESS
}

skinparam rectangle<<external_person>> {
  StereotypeFontColor FONT_COLOR
  FontColor FONT_COLOR
  BackgroundColor BG_SECONDARY_COLOR
  BorderColor BORDER_COLOR
  BorderThickness BORDER_THICKNESS
}

skinparam rectangle<<system>> {
  StereotypeFontColor FONT_COLOR
  FontColor FONT_COLOR
  BackgroundColor BG_MAIN_COLOR
  BorderColor BORDER_COLOR
  BorderThickness BORDER_THICKNESS
}

skinparam rectangle<<external_system>> {
  StereotypeFontColor FONT_COLOR
  FontColor FONT_COLOR
  BackgroundColor BG_SECONDARY_COLOR
  BorderColor BORDER_COLOR
  BorderThickness BORDER_THICKNESS
}

skinparam database<<system>> {
  StereotypeFontColor FONT_COLOR
  FontColor FONT_COLOR
  BackgroundColor BG_MAIN_COLOR
  BorderColor BORDER_COLOR
  BorderThickness BORDER_THICKNESS
}

skinparam database<<external_system>> {
  StereotypeFontColor FONT_COLOR
  FontColor FONT_COLOR
  BackgroundColor BG_SECONDARY_COLOR
  BorderColor BORDER_COLOR
  BorderThickness BORDER_THICKNESS
}

skinparam rectangle<<boundary>> {
  Shadowing false
  StereotypeFontSize 0
  BackgroundColor BG_PACKAGE_COLOR
  StereotypeFontColor FONT_COLOR
  FontColor FONT_COLOR
  BorderColor BORDER_COLOR
  BorderStyle dashed
  BorderThickness BORDER_THICKNESS
}
skinparam rectangle<<container>> {
  Shadowing false
  StereotypeFontSize 14
  BackgroundColor BG_MAIN_COLOR
  StereotypeFontColor FONT_COLOR
  FontColor FONT_COLOR
  BorderColor BORDER_COLOR
  BorderThickness BORDER_THICKNESS
}
box "Hlavné vlákno"
participant "MainActivity" as UI << (C,#ADD1B2) AppCompatActivity >> order 2
create "Handler pre hlavné vlákno" as HAN1 << (C,#ADD1B2) Handler >> order 1
end box
UI->HAN1: new Handler() 
UI<- ->HAN1 ++: looper
box "Pracovné vlákno"
create "MyHandlerThread" as HT << (C,#ADD1B2) HandlerThread >> order 4
UI->HT: new 
create "Handler pre pracovné vlákno" as HAN2 << (C,#ADD1B2) Handler >> order 3
UI->HAN2: new Handler() 
end box
HT->HAN2 ++: getLooper()

UI->HAN2:post("ImageUrl 1")
hnote over HAN2: ImageUrl 1
UI->HAN2:post("ImageUrl 2")
hnote over HAN2: ImageUrl 1\nImageUrl 2
UI->HAN2:post("ImageUrl 3")
hnote over HAN2: ImageUrl 1\nImageUrl 2\nImageUrl 3
HAN2->HT++:handleMessage(ImageUrl 1)
hnote over HAN2: ImageUrl 2\nImageUrl 3
HT->HT:Download ImageUrl 1
UI->HAN2:post("ImageUrl 4")
hnote over HAN2: ImageUrl 2\nImageUrl 3\nImageUrl 4
HT->HAN1- -:post(Runnable)
hnote over HAN1: Image 1
HAN1->UI++: onImageDownloaded(Image 1)
HAN2->HT++:handleMessage(ImageUrl 2)
hnote over HAN2: ImageUrl 3\nImageUrl 4
HT->HT:Download ImageUrl 2
UI -> UI- -:ShowImage 
HT->HAN1- -:post(Runnable)
hnote over HAN1: Image 2
HAN1->UI++: onImageDownloaded(Image 2)
HAN2->HT++:handleMessage(ImageUrl 3)
hnote over HAN2: ImageUrl 4
HT->HT:Download ImageUrl 3
UI -> UI- -:ShowImage 
HT->HAN1- -:post(Runnable)
hnote over HAN1: Image 3
HAN1->UI++: onImageDownloaded(Image 3)
HAN2->HT++:handleMessage(ImageUrl 4)
HT->HT:Download ImageUrl 4
UI -> UI- -:ShowImage 

HT->HAN1- -:post(Runnable)
hnote over HAN1: Image 4
HAN1->UI++: onImageDownloaded(Image 4)
UI -> UI- -:ShowImage
@enduml

@startuml



skinparam Padding 4
skinparam RoundCorner 4
skinparam Shadowing false

skinparam Default {
  FontColor #444444
  FontSize 12
}

skinparam Arrow {
  Color #444444
  FontColor #444444
  FontStyle Bold
}

skinparam activityDiamond {
  BackgroundColor #66BCF0
  BorderColor #444444
  FontColor #444444
}

skinparam activity {
  BackgroundColor #66BCF0
  BorderColor #444444
  FontColor #444444
}

skinparam package {
  FontColor #444444
  BackgroundColor #66BCF0
  BorderColor #444444
}
skinparam node {
  FontColor #444444
  BackgroundColor #eeb291
  BorderColor #444444
}
skinparam component {
  BackgroundColor #66BCF0
  BorderColor #444444
  FontColor #444444
  Style uml2
}

skinparam database {
  BackgroundColor #66BCF0
  BorderColor #444444
  FontColor #444444
}

skinparam cloud {
  BackgroundColor #66BCF0
  BorderColor #444444
  FontColor #444444
}

skinparam collections {
  BackgroundColor #66BCF0
  BorderColor #444444
  FontColor #444444
}
skinparam Control {
  BackgroundColor #66BCF0
  BorderColor #444444
  FontColor #444444
}
skinparam Boundary {
  BackgroundColor #66BCF0
  BorderColor #444444
  FontColor #444444
}
skinparam Entity {
  BackgroundColor #66BCF0
  BorderColor #444444
  FontColor #444444
}
skinparam interface {
  BackgroundColor #66BCF0
  BorderColor #444444
  FontColor #444444
}
skinparam SequenceParticipantBorderThickness 3
skinparam sequence {
  ParticipantBackgroundColor #66BCF0
  ParticipantBorderColor #444444
  ParticipantFontStyle normal
  ParticipantFontColor #444444
  LifeLineBorderColor #444444
  LifeLineBackgroundColor #66BCF0
  ArrowColor #444444
  ArrowBorderColor #444444
  ArrowFontColor #444444
  ArrowThickness 3
  ActorBackgroundColor #66BCF0
  ActorBorderColor #444444
  ActorFontColor #444444
}


skinparam rectangle<<person>> {
  StereotypeFontColor #444444
  FontColor #444444
  BackgroundColor #66BCF0
  BorderColor #444444
  BorderThickness 3
}

skinparam rectangle<<external_person>> {
  StereotypeFontColor #444444
  FontColor #444444
  BackgroundColor #B4BCBE
  BorderColor #444444
  BorderThickness 3
}

skinparam rectangle<<system>> {
  StereotypeFontColor #444444
  FontColor #444444
  BackgroundColor #66BCF0
  BorderColor #444444
  BorderThickness 3
}

skinparam rectangle<<external_system>> {
  StereotypeFontColor #444444
  FontColor #444444
  BackgroundColor #B4BCBE
  BorderColor #444444
  BorderThickness 3
}

skinparam database<<system>> {
  StereotypeFontColor #444444
  FontColor #444444
  BackgroundColor #66BCF0
  BorderColor #444444
  BorderThickness 3
}

skinparam database<<external_system>> {
  StereotypeFontColor #444444
  FontColor #444444
  BackgroundColor #B4BCBE
  BorderColor #444444
  BorderThickness 3
}

skinparam rectangle<<boundary>> {
  Shadowing false
  StereotypeFontSize 0
  BackgroundColor #eeb291
  StereotypeFontColor #444444
  FontColor #444444
  BorderColor #444444
  BorderStyle dashed
  BorderThickness 3
}
skinparam rectangle<<container>> {
  Shadowing false
  StereotypeFontSize 14
  BackgroundColor #66BCF0
  StereotypeFontColor #444444
  FontColor #444444
  BorderColor #444444
  BorderThickness 3
}
box "Hlavné vlákno"
participant "MainActivity" as UI << (C,#ADD1B2) AppCompatActivity >> order 2
create "Handler pre hlavné vlákno" as HAN1 << (C,#ADD1B2) Handler >> order 1
end box
UI->HAN1: new Handler() 
UI<- ->HAN1 ++: looper
box "Pracovné vlákno"
create "MyHandlerThread" as HT << (C,#ADD1B2) HandlerThread >> order 4
UI->HT: new 
create "Handler pre pracovné vlákno" as HAN2 << (C,#ADD1B2) Handler >> order 3
UI->HAN2: new Handler() 
end box
HT->HAN2 ++: getLooper()

UI->HAN2:post("ImageUrl 1")
hnote over HAN2: ImageUrl 1
UI->HAN2:post("ImageUrl 2")
hnote over HAN2: ImageUrl 1\nImageUrl 2
UI->HAN2:post("ImageUrl 3")
hnote over HAN2: ImageUrl 1\nImageUrl 2\nImageUrl 3
HAN2->HT++:handleMessage(ImageUrl 1)
hnote over HAN2: ImageUrl 2\nImageUrl 3
HT->HT:Download ImageUrl 1
UI->HAN2:post("ImageUrl 4")
hnote over HAN2: ImageUrl 2\nImageUrl 3\nImageUrl 4
HT->HAN1- -:post(Runnable)
hnote over HAN1: Image 1
HAN1->UI++: onImageDownloaded(Image 1)
HAN2->HT++:handleMessage(ImageUrl 2)
hnote over HAN2: ImageUrl 3\nImageUrl 4
HT->HT:Download ImageUrl 2
UI -> UI- -:ShowImage 
HT->HAN1- -:post(Runnable)
hnote over HAN1: Image 2
HAN1->UI++: onImageDownloaded(Image 2)
HAN2->HT++:handleMessage(ImageUrl 3)
hnote over HAN2: ImageUrl 4
HT->HT:Download ImageUrl 3
UI -> UI- -:ShowImage 
HT->HAN1- -:post(Runnable)
hnote over HAN1: Image 3
HAN1->UI++: onImageDownloaded(Image 3)
HAN2->HT++:handleMessage(ImageUrl 4)
HT->HT:Download ImageUrl 4
UI -> UI- -:ShowImage 

HT->HAN1- -:post(Runnable)
hnote over HAN1: Image 4
HAN1->UI++: onImageDownloaded(Image 4)
UI -> UI- -:ShowImage
@enduml

PlantUML version 1.2020.13(Sat Jun 13 12:26:38 UTC 2020)
(GPL source distribution)
Java Runtime: Java(TM) SE Runtime Environment
JVM: Java HotSpot(TM) 64-Bit Server VM
Default Encoding: UTF-8
Language: en
Country: US
--></g></svg>